<?xml version="1.0" encoding="UTF-8" standalone="no"?>
<!-- Created with Inkscape (http://www.inkscape.org/) -->

<svg
   version="1.1"
   id="svg1"
   width="702.0957"
   height="1178.991"
   viewBox="0 0 702.0957 1178.991"
   sodipodi:docname="leustachelogo.svg"
   inkscape:version="1.4.2 (ebf0e940, 2025-05-08)"
   xmlns:inkscape="http://www.inkscape.org/namespaces/inkscape"
   xmlns:sodipodi="http://sodipodi.sourceforge.net/DTD/sodipodi-0.dtd"
   xmlns="http://www.w3.org/2000/svg"
   xmlns:svg="http://www.w3.org/2000/svg">
  <defs
     id="defs1" />
  <sodipodi:namedview
     id="namedview1"
     pagecolor="#ffffff"
     bordercolor="#000000"
     borderopacity="0.25"
     inkscape:showpageshadow="2"
     inkscape:pageopacity="0.0"
     inkscape:pagecheckerboard="0"
     inkscape:deskcolor="#d1d1d1"
     showgrid="false"
     inkscape:zoom="0.37744141"
     inkscape:cx="329.85252"
     inkscape:cy="662.35446"
     inkscape:window-width="1440"
     inkscape:window-height="795"
     inkscape:window-x="0"
     inkscape:window-y="25"
     inkscape:window-maximized="0"
     inkscape:current-layer="g1" />
  <g
     inkscape:groupmode="layer"
     inkscape:label="Image"
     id="g1"
     transform="translate(-402.71152,-524.58472)">
    <path
       style="fill:#000000"
       d="m 530.73447,1692.9662 c -8.87611,-2.219 -17.33025,-9.1544 -21.90053,-17.9662 -2.01135,-3.878 -2.33394,-5.9513 -2.33394,-15 0,-9.1186 0.32201,-11.1544 2.4476,-15.4739 3.11902,-6.3384 9.25285,-12.4765 15.48008,-15.4911 6.82786,-3.3053 17.20429,-3.3792 23.81106,-0.1696 8.55416,4.1557 15.76126,15.0365 15.76126,23.7954 v 2.2978 l -20.25,0.2707 -20.25,0.2707 0.2243,11.5 c 0.35566,18.2346 3.33182,23 14.36427,23 9.6617,0 16.73597,-5.0722 21.04523,-15.0894 2.31841,-5.3893 5.59733,-6.9975 4.40527,-2.1606 -1.19437,4.8462 -4.91126,11.3854 -7.90176,13.9017 -6.95515,5.8524 -16.78303,8.3444 -24.90284,6.3145 z M 547.5,1648 c 0.93605,-5.5404 -0.27554,-11.6275 -2.92822,-14.7114 -1.77348,-2.0618 -3.34797,-2.6787 -7.65234,-2.9979 -9.69278,-0.719 -13.89958,4.0558 -13.91386,15.7926 -0.003,2.5209 0.29442,4.8834 0.66109,5.25 0.36666,0.3667 5.72711,0.6667 11.9121,0.6667 h 11.24543 z m 139.59623,44.8414 c -1.87207,-0.5381 -5.01403,-2.0725 -6.98213,-3.4098 -4.32879,-2.9415 -4.62935,-2.9581 -7.84123,-0.4316 -4.8749,3.8346 -5.27287,3.0799 -5.27287,-10 0,-13.5634 1.21043,-15.477 4.47251,-7.0709 1.05203,2.7111 3.36292,6.9275 5.13532,9.3698 7.49809,10.3322 22.16989,11.6961 29.68915,2.76 3.33557,-3.9641 4.11743,-6.8387 2.80144,-10.3 -1.39961,-3.6813 -4.84566,-5.1911 -17.59842,-7.7104 -12.94983,-2.5582 -18.1035,-5.219 -21.3719,-11.0344 -3.32075,-5.9084 -2.76674,-15.177 1.21958,-20.4033 6.81284,-8.9321 20.76797,-10.937 30.06209,-4.319 l 2.9281,2.085 1.45304,-2.1884 c 0.79917,-1.2036 2.07315,-2.1884 2.83106,-2.1884 1.06863,0 1.37803,2.0207 1.37803,9 0,10.9304 -1.37274,11.7344 -5.62526,3.2947 -3.71252,-7.368 -6.7871,-9.5522 -14.20097,-10.0885 -11.13338,-0.8053 -19.07553,6.5033 -15.11297,13.9074 1.37087,2.5615 4.50924,3.7198 14.9392,5.5136 16.75182,2.881 23.66124,8.5454 24.72431,20.269 1.40404,15.4841 -12.73398,27.2258 -27.62808,22.9452 z m 116.69513,0.2284 c -10.00352,-3.2306 -14.28929,-12.9747 -9.92856,-22.5735 3.42636,-7.5421 15.15202,-13.0195 30.3872,-14.1949 4.50082,-0.3472 7.79745,-1.0598 7.86319,-1.6996 0.31898,-3.1051 -0.17335,-16.4666 -0.69685,-18.9118 -0.73626,-3.439 -3.64814,-4.69 -10.91634,-4.69 -6.22138,0 -10.29364,1.2987 -11.16115,3.5593 -0.33544,0.8742 -0.0481,3.2915 0.63845,5.3719 1.58205,4.7937 0.71191,7.5407 -2.85681,9.0189 -9.78105,4.0514 -14.54966,-8.7073 -5.76008,-15.4114 5.72765,-4.3687 11.20824,-5.7612 23.13959,-5.8792 9.3295,-0.092 11.72648,0.2228 15.78377,2.0745 7.28617,3.3255 7.71623,5.0422 7.71623,30.7996 0,12.9756 0.41326,22.3701 1.03518,23.5321 1.33997,2.5038 4.52355,2.4725 6.69685,-0.066 2.06534,-2.4121 3.26797,-2.5609 3.26797,-0.4043 0,3.3264 -3.48376,7.4236 -7.67219,9.0232 -7.50277,2.8653 -14.95627,-0.184 -17.47492,-7.1492 -0.69007,-1.9083 -1.52599,-3.4697 -1.85761,-3.4697 -0.33162,0 -2.15372,1.6144 -4.04911,3.5876 -1.89539,1.9732 -5.19109,4.4867 -7.32377,5.5855 -4.38538,2.2594 -12.77912,3.2053 -16.83104,1.8967 z m 20.60411,-8.9391 c 5.31371,-2.9926 7.05632,-6.4982 7.60453,-15.2982 0.275,-4.4143 0.22138,-8.4763 -0.11916,-9.0266 -0.84339,-1.3629 -14.66642,0.8236 -17.6767,2.796 -7.78905,5.1036 -8.37213,17.8928 -1.01961,22.3641 3.50401,2.1309 6.31596,1.9214 11.21094,-0.8353 z m 71.40774,8.4699 c -8.47909,-2.2826 -16.5987,-9.3551 -21.35454,-18.6006 -2.58619,-5.0276 -3.16353,-18.3332 -1.06884,-24.6329 2.64641,-7.959 9.4299,-15.6558 17.14569,-19.4543 5.69666,-2.8044 7.72576,-3.275 14.30632,-3.3179 9.00506,-0.059 15.20927,2.41 20.12421,8.0078 5.86722,6.6824 3.35897,16.3973 -4.23354,16.3973 -5.00848,0 -7.72859,-2.4074 -7.69071,-6.8067 0.0175,-2.0313 0.6925,-4.5668 1.5,-5.6344 3.57327,-4.7243 -0.56508,-8.5602 -9.23214,-8.5573 -6.14604,0 -11.1899,2.5662 -13.76564,6.9984 -1.84652,3.1774 -2.03355,5.2053 -2.02896,22 0.005,16.8308 0.1997,18.9222 2.16236,23.179 2.58535,5.6074 6.29928,7.8298 13.03292,7.799 9.23964,-0.042 17.25475,-6.0566 20.94354,-15.7156 1.62298,-4.2497 4.3649,-5.8346 4.34635,-2.5124 -0.0194,3.4774 -4.76418,11.8291 -8.77372,15.4436 -4.26038,3.8405 -12.16649,6.8595 -17.64801,6.7389 -1.68768,-0.037 -5.18206,-0.6365 -7.76529,-1.3319 z m 161.14739,0.037 c -8.9334,-2.4093 -17.179,-9.5728 -21.3125,-18.5156 -3.1597,-6.8359 -3.0419,-21.5642 0.2307,-28.8362 2.7916,-6.2032 10.3022,-13.5643 16.914,-16.5773 9.7853,-4.4592 22.6009,-2.0889 30.2849,5.6014 3.7656,3.7687 7.6527,11.7697 8.1082,16.6897 l 0.3241,3.5 -20.25,0.2707 -20.25,0.2707 v 9.9301 c 0,18.9051 2.5677,23.9964 12.5182,24.8216 10.3386,0.8573 18.758,-4.6551 23.0513,-15.0924 1.9102,-4.6439 4.4396,-6.3321 4.4207,-2.9507 -0.019,3.4774 -4.7642,11.8291 -8.7737,15.4436 -4.2604,3.8405 -12.1665,6.8595 -17.648,6.7389 -1.6877,-0.037 -5.1157,-0.6196 -7.6179,-1.2945 z m 17.6503,-43.1842 c 0.3515,-1.4004 0.4293,-5.076 0.1729,-8.168 -0.3939,-4.7494 -0.9581,-6.0613 -3.6358,-8.4538 -2.4708,-2.2076 -4.1478,-2.832 -7.6067,-2.832 -9.3834,0 -12.5313,3.7555 -12.5313,14.9503 V 1652 h 11.4809 c 11.4679,0 11.4817,0 12.12,-2.5462 z m -475.29085,42.5359 c -5.75422,-1.1878 -9.03725,-3.5635 -11.59793,-8.3925 -2.01884,-3.8071 -2.1983,-5.7788 -2.53458,-27.8472 L 584.81562,1632 h -5.98113 c -5.15804,0 -5.93476,-0.2408 -5.64412,-1.75 0.3011,-1.5635 1.77428,-1.75 13.82333,-1.75 H 600.5 l 0.5,28.2161 c 0.56627,31.956 0.53705,31.8408 8.03003,31.6444 4.76364,-0.1249 10.38463,-3.724 13.87717,-8.8856 4.01411,-5.9323 5.0928,-12.4332 5.0928,-30.6928 V 1632 h -6.57332 c -5.72158,0 -6.52981,-0.2268 -6.23751,-1.75 0.29802,-1.5531 1.93782,-1.7812 14.57332,-2.0275 L 644,1627.9451 V 1657.9725 1688 h 5.5 c 4.83333,0 5.5,0.2424 5.5,2 0,1.9012 -0.66667,2 -13.5,2 H 628 l -0.004,-7.25 -0.004,-7.25 -1.85111,3 c -5.83683,9.4594 -15.86481,13.7536 -26.83136,11.4897 z m 151.97593,0.1012 c -2.3177,-0.3937 -5.19231,-1.5877 -6.38801,-2.6533 C 740.43251,1685.4578 740,1682.5521 740,1656.5321 V 1632 h -7.57332 c -6.67324,0 -7.53364,-0.208 -7.2394,-1.75 0.27493,-1.4408 1.61306,-1.8019 7.57332,-2.0438 L 740,1627.9124 v -8.3434 -8.3433 l 7.25,-0.455 c 3.9875,-0.2502 7.57236,-0.2838 7.96636,-0.075 0.394,0.2092 0.57087,4.1882 0.39304,8.8421 L 755.28608,1628 h 9.85696 c 9.19029,0 9.85696,0.1353 9.85696,2 0,1.8596 -0.66667,2 -9.5,2 H 756 v 25.8089 c 0,29.2403 0.092,29.6456 6.73144,29.6456 4.76225,0 8.73851,-2.4418 11.44449,-7.0281 1.98235,-3.3598 4.82771,-4.6445 4.82033,-2.1764 -0.005,1.6618 -3.83129,7.8744 -5.87284,9.5354 -4.61424,3.7542 -14.08753,5.6219 -21.83744,4.3055 z M 413,1690 c 0,-1.7576 0.66667,-2 5.5,-2 3.025,0 5.545,-0.45 5.6,-1 0.055,-0.55 0.1,-2.125 0.1,-3.5 0,-1.375 -0.045,-23.65 -0.1,-49.5 l -0.1,-47 h -5.57332 c -4.7686,0 -5.52506,-0.2527 -5.23906,-1.75 0.29239,-1.5308 1.99308,-1.8126 13.57538,-2.25 l 13.24112,-0.5 -0.002,52.75 L 440,1688 h 5.5 c 4.83333,0 5.5,0.2424 5.5,2 0,1.9298 -0.66667,2 -19,2 -18.33333,0 -19,-0.07 -19,-2 z m 528,0 c 0,-1.7781 0.66667,-2 6.00925,-2 h 6.00925 l -0.25925,-50.25 -0.25925,-50.25 -6,-0.099 c -5.3381,-0.088 -6.03525,-0.3359 -6.31955,-2.25 -0.31416,-2.1152 -0.0821,-2.1515 13.75,-2.1515 H 968 l 0.0111,29.75 0.0111,29.75 2.73574,-3.5 c 6.86141,-8.7782 11.38561,-11.3318 20.24208,-11.4253 8.82755,-0.093 14.54858,3.0073 17.85698,9.6772 2.2099,4.4554 2.3908,6.1871 2.8989,27.75 l 0.5419,22.9981 h 4.8511 c 4.1844,0 4.8511,0.2749 4.8511,2 0,1.9259 -0.6667,2 -18,2 -17.33331,0 -17.99998,-0.074 -17.99998,-2 0,-1.7372 0.66667,-2 5.07361,-2 h 5.07362 l -0.32362,-26.4659 c -0.36956,-30.2241 -0.31715,-30.0341 -8.28599,-30.0341 -5.34772,0 -8.79862,2.3176 -13.27403,8.9146 -4.60006,6.7808 -5.20515,10.0418 -5.50066,29.6442 L 968.5,1687.5 l 5.25,0.3023 c 4.43292,0.2552 5.25,0.6054 5.25,2.25 0,1.8619 -0.8366,1.9477 -19,1.9477 -18.33333,0 -19,-0.07 -19,-2 z m -467.69804,-65.077 c -0.93482,-0.9512 -0.14966,-2.3953 3.57359,-6.5727 6.17376,-6.9268 9.12445,-12.9126 9.12445,-18.5098 0,-7.0448 -2.89027,-8.8887 -5.628,-3.5905 -2.89426,5.6012 -6.48407,7.023 -11.71468,4.6397 -4.76286,-2.1701 -6.14565,-9.7279 -2.6037,-14.2307 2.37702,-3.0219 8.62627,-5.0171 12.65891,-4.0416 10.62674,2.5706 14.70073,14.3478 9.14058,26.4239 -3.32333,7.2179 -12.84858,17.6142 -14.55115,15.8817 z M 845.5,1483.0008 c -10.45,-0.4429 -32.725,-0.5556 -49.5,-0.2505 -30.27746,0.5506 -43.6072,-0.2473 -49.57793,-2.9678 -1.70034,-0.7747 -2.73603,-0.7668 -3.69384,0.028 -0.94314,0.7827 -24.01308,1.1436 -79.16874,1.2384 -75.63528,0.13 -77.91162,0.079 -80.44862,-1.81 -2.43737,-1.8145 -2.6516,-2.6347 -3.22372,-12.3413 -0.33708,-5.7188 -0.38285,-14.3259 -0.10174,-19.1269 0.62358,-10.6497 2.4714,-14.3531 7.64582,-15.3239 3.85327,-0.7229 21.16506,0.8746 49.06877,4.5279 15.47343,2.0259 66.18475,2.3975 87.4676,0.6411 24.34567,-2.0092 23.32942,-1.3161 24.0324,-16.3926 l 0.5,-10.7233 6,0.081 c 26.92661,0.3612 63.81448,4.5581 83,9.4432 6.05,1.5405 14.6,3.5756 19,4.5224 4.4,0.9469 9.575,2.5005 11.5,3.4525 1.925,0.9521 5.11832,2.0242 7.09626,2.3827 1.97795,0.3584 5.44371,1.5442 7.7017,2.6352 2.25798,1.0909 4.57968,1.9835 5.15932,1.9835 0.57963,0 9.30375,4.004 19.38692,8.8979 l 18.33305,8.8978 10.41137,10.4001 c 10.90542,10.8936 17.47484,18.5741 16.61915,19.4298 -0.90115,0.9011 -87.63279,1.2047 -107.20777,0.3752 z m 86.5,-9.2541 c 0,-1.2683 -8.97824,-10.1018 -9.61756,-9.4625 -0.23658,0.2366 -2.45684,-1.5117 -4.9339,-3.885 -2.70599,-2.5927 -5.08812,-4.091 -5.96771,-3.7535 -0.80803,0.3101 -1.72921,-0.1294 -2.05594,-0.9808 -0.32558,-0.8485 -1.90438,-1.8309 -3.50843,-2.1832 -1.60405,-0.3524 -2.91646,-1.0375 -2.91646,-1.5226 0,-0.4851 -1.8,-1.3667 -4,-1.9591 -2.2,-0.5924 -4,-1.4513 -4,-1.9086 0,-0.4573 -2.1375,-1.41 -4.75,-2.1171 -2.6125,-0.7071 -6.1,-1.9712 -7.75,-2.8092 -3.72661,-1.8926 -24.45787,-9.1909 -26.5,-9.3292 -0.825,-0.056 -2.24891,-0.7516 -3.16425,-1.5461 -0.91534,-0.7945 -2.49034,-1.3394 -3.5,-1.2109 -1.00966,0.1286 -3.18575,-0.3261 -4.83575,-1.0104 -1.65,-0.6842 -4.575,-1.4654 -6.5,-1.736 -1.925,-0.2706 -4.4,-0.8732 -5.5,-1.3392 -1.87757,-0.7954 -4.80101,-1.2254 -17,-2.5007 -24.41484,-2.5524 -58.00082,-4.1093 -58.85434,-2.7283 -0.54765,0.8861 -0.66717,3.5247 -0.8034,17.7357 -0.0369,3.85 -0.12902,12.8163 -0.20468,19.9251 l -0.13758,12.9252 2.70153,0.7254 c 1.48585,0.399 33.64334,0.7902 71.46111,0.8693 37.81776,0.079 68.85208,0.2364 68.96514,0.3494 0.11307,0.1131 7.66807,0.2812 16.7889,0.3737 11.40013,0.1156 16.58332,-0.1724 16.58332,-0.9214 z m -328,-2.1842 c 4.675,-0.1334 10.86251,-0.3146 13.75001,-0.4026 l 5.25002,-0.1599 -0.0921,-14.25 c -0.0507,-7.8375 -0.52644,-14.7772 -1.05729,-15.4215 -0.65093,-0.79 -5.77348,-1.2039 -15.73388,-1.271 -12.97382,-0.087 -14.95202,0.1157 -16.27694,1.6715 -1.15605,1.3575 -1.56798,5.0132 -1.76417,15.6563 -0.27708,15.0307 0.10544,16.198 4.92438,15.0272 1.375,-0.334 6.325,-0.7165 11,-0.85 z m 46.91667,-2.198 c 0.22916,-0.2005 -2.38489,-0.3645 -5.80902,-0.3645 -3.99545,0 -5.99884,0.367 -5.59245,1.0246 0.56549,0.915 10.24144,0.3548 11.40147,-0.6601 z m -19.66667,-0.027 c -0.6875,-0.2774 -1.8125,-0.2774 -2.5,0 -0.6875,0.2774 -0.125,0.5044 1.25,0.5044 1.375,0 1.9375,-0.227 1.25,-0.5044 z m 39.51791,-1.0522 c -1.50265,-0.2282 -4.20265,-0.2328 -6,-0.01 -1.79735,0.2225 -0.56791,0.4092 2.73209,0.4148 3.3,0.01 4.77056,-0.1765 3.26791,-0.4046 z M 631,1466.3834 c 0,-0.2109 -1.15156,-0.3834 -2.55902,-0.3834 -1.40746,0 -2.30701,0.4078 -1.999,0.9061 0.51233,0.829 4.55802,0.365 4.55802,-0.5227 z m 3.72917,0.012 c -0.33229,-0.3323 -1.1948,-0.3678 -1.91667,-0.079 -0.79773,0.3192 -0.56078,0.5562 0.60417,0.6042 1.05416,0.043 1.64479,-0.193 1.3125,-0.5253 z m 29.02083,-0.044 c 2.8875,-0.3468 5.25,-1.0754 5.25,-1.6191 0,-0.617 -1.59741,-0.6994 -4.25,-0.2192 -2.3375,0.4231 -9.425,1.0815 -15.75,1.4631 l -11.5,0.6937 10.5,0.1561 c 5.775,0.086 12.8625,-0.1278 15.75,-0.4746 z M 647,1463.0165 c -4.125,-0.3796 -9.975,-0.3726 -13,0.016 -4.02918,0.5169 -2.02351,0.7015 7.5,0.6901 11.41582,-0.014 12.08605,-0.1 5.5,-0.7057 z m 28.54112,-4.083 c 0.36253,-0.5866 0.4535,-1.2722 0.20214,-1.5236 -0.69747,-0.6974 -3.74326,0.6834 -3.74326,1.6971 0,1.2518 2.74331,1.1174 3.54112,-0.1735 z m 11.84705,-2.7526 c 0.27841,-0.4504 -0.82003,-0.6244 -2.44098,-0.3865 -1.62096,0.2379 -2.94719,0.6065 -2.94719,0.8191 0,0.762 4.89266,0.3692 5.38817,-0.4326 z m -21.44526,-2.945 c 0.3064,-0.4168 2.80709,-0.8755 5.55709,-1.0193 6.05204,-0.3164 10.5,-1.9568 10.5,-3.8724 0,-1.1175 -1.04593,-1.2743 -5,-0.7498 -3.43881,0.4562 -5,0.3108 -5,-0.4656 0,-1.788 -3.49426,-1.3145 -6.24061,0.8458 -3.30716,2.6014 -7.60791,2.8349 -11.0144,0.598 -2.22797,-1.4631 -3.04099,-1.5718 -4.25,-0.5684 -2.20995,1.8341 -1.81607,4.9343 0.75501,5.9427 2.54176,0.9968 13.83939,0.4501 14.69291,-0.711 z m 28.30709,1.1018 c -0.6875,-0.2774 -1.8125,-0.2774 -2.5,0 -0.6875,0.2774 -0.125,0.5044 1.25,0.5044 1.375,0 1.9375,-0.227 1.25,-0.5044 z M 644,1453 c 0,-0.55 -0.42344,-1 -0.94098,-1 -0.51754,0 -1.2191,0.45 -1.55902,1 -0.33992,0.55 0.0835,1 0.94098,1 0.85746,0 1.55902,-0.45 1.55902,-1 z m 44,-3.607 c 0,-0.2161 -0.92656,-0.393 -2.05902,-0.393 -1.13246,0 -1.79305,0.4303 -1.46797,0.9563 0.53361,0.8634 3.52699,0.3853 3.52699,-0.5633 z M 638.5,1449 c -0.33992,-0.55 -1.04148,-1 -1.55902,-1 -0.51754,0 -0.94098,0.45 -0.94098,1 0,0.55 0.70156,1 1.55902,1 0.85746,0 1.2809,-0.45 0.94098,-1 z m 65.31513,-2.25 c 0.27057,-1.4282 -0.39773,-1.75 -3.63482,-1.75 -3.89586,0 -6.49119,2.2641 -3.87413,3.3797 2.59512,1.1062 7.17914,0.1114 7.50895,-1.6297 z m -221.54208,-17.456 c -1.52959,-2.3344 -1.77305,-5.1493 -1.77305,-20.5 V 1391 h -3.20078 c -7.91693,0 -27.54617,-6.8372 -29.74125,-10.3593 -1.30596,-2.0955 0.72365,-3.677 4.44203,-3.4613 5.81227,0.3373 14.33121,-1.7867 30.06199,-7.4951 20.91902,-7.5911 25.27161,-9.6989 29.68801,-14.3765 2.3375,-2.4757 4.25,-5.1328 4.25,-5.9045 0,-0.7718 0.45,-1.4033 1,-1.4033 0.55,0 1.00663,-1.0125 1.01474,-2.25 0.008,-1.2375 0.65613,-3.375 1.44004,-4.75 3.95012,-6.9286 9.54522,-22.3481 9.54522,-26.3057 0,-1.245 0.9,-4.8243 2,-7.954 1.1,-3.1297 2,-6.9642 2,-8.5211 0,-3.0784 3.849,-15.4078 5.06369,-16.2204 0.41208,-0.2757 0.70678,-8.1507 0.6549,-17.5 -0.0519,-9.3493 0.26399,-18.2363 0.70194,-19.7488 0.52842,-1.8249 0.42342,-2.75 -0.31212,-2.75 -0.60963,0 -1.10841,1.1516 -1.10841,2.559 0,4.5481 -1.73774,1.6429 -2.86913,-4.7966 -0.60515,-3.4443 -1.33363,-9.4124 -1.61884,-13.2624 -0.85989,-11.6074 -2.145,-20.0359 -5.56521,-36.5 -0.51416,-2.475 -1.32946,-6.4254 -1.81179,-8.7787 -1.47863,-7.2141 -3.34776,-8.4572 -12.121,-8.0608 L 506.5,1173.5 l -0.5,-15.1956 -0.5,-15.1955 -3.47217,-3.5813 c -2.0792,-2.1445 -8.89926,-6.3078 -17,-10.3776 -7.4403,-3.7379 -15.13977,-7.8883 -17.10993,-9.2231 -1.97015,-1.3348 -6.02015,-4.0574 -9,-6.0503 -7.9819,-5.3381 -20.66232,-19.0498 -23.45331,-25.3608 -1.29171,-2.9207 -2.71877,-5.4692 -3.17125,-5.6631 -0.45247,-0.194 -3.60334,-5.9777 -7.00192,-12.8527 -8.3023,-16.7947 -9.93453,-23.214 -6.71999,-26.4286 1.98411,-1.9841 6.14319,-2.0064 10.80645,-0.058 5.58905,2.3353 4.67607,-0.1243 -2.87788,-7.7529 -3.575,-3.6103 -6.48569,-7.3959 -6.4682,-8.4124 0.0429,-2.4896 2.32478,-5.3481 4.26943,-5.3481 0.8694,0 1.84115,-0.4214 2.15944,-0.9364 0.31829,-0.515 1.35735,-0.9584 2.30902,-0.9853 0.95167,-0.027 4.20531,-0.3222 7.23031,-0.6563 3.025,-0.3341 6.85,-0.6782 8.5,-0.7647 1.65,-0.087 3.57334,-0.6985 4.27408,-1.36 1.29968,-1.2268 21.73129,-1.1253 22.97072,0.1142 0.32369,0.3237 2.06198,0.5885 3.86285,0.5885 1.80087,0 3.51513,0.3897 3.80947,0.8659 0.29433,0.4762 1.68313,0.6464 3.08621,0.3782 2.22865,-0.426 17.32859,2.0263 21.49667,3.4911 21.51512,7.5615 33.23552,12.3529 39.01322,15.9487 1.92998,1.2012 4.75029,2.6559 6.26735,3.2327 9.94305,3.7803 31.65475,22.7092 51.71943,45.0904 4.125,4.6013 9.88759,10.8835 12.80575,13.9606 2.91816,3.0771 5.61816,6.0335 6,6.5698 0.88405,1.2416 11.89464,10.4898 15.19425,12.7622 7.29726,5.0255 10.06841,6.7004 11.08622,6.7004 0.61929,0 2.76573,1.2901 4.76988,2.8669 2.00414,1.5768 5.6689,3.8873 8.1439,5.1344 2.475,1.247 4.725,2.5941 5,2.9935 0.275,0.3994 1.93518,1.4614 3.6893,2.36 2.80901,1.439 6.3107,5.1143 6.3107,6.6236 0,0.961 -5.39217,2.873 -11,3.9006 -3.025,0.5543 -9.325,2.2707 -14,3.8144 l -8.5,2.8066 v 7.2354 c 0,4.9397 0.40455,7.3918 1.27499,7.7282 0.94716,0.3661 1.12098,2.2983 0.67605,7.5146 -0.43078,5.0504 -0.26915,7.0218 0.57571,7.0218 0.80573,0 1.0156,1.4918 0.66826,4.75 -0.27851,2.6125 -0.72943,9.5586 -1.00204,15.4359 -0.27262,5.8772 -0.85182,11.2621 -1.28712,11.9664 -0.4353,0.7044 -0.93427,6.6234 -1.10882,13.1535 -0.27671,10.3514 -0.62386,12.4059 -2.70916,16.0335 -1.31549,2.2884 -2.70332,5.6535 -3.08408,7.4781 -0.38076,1.8245 -1.32211,4.5245 -2.09188,6 -0.76977,1.4754 -1.41304,4.2576 -1.42948,6.1826 -0.0165,1.925 -1.17939,6.2 -2.58431,9.5 -1.40493,3.3 -2.80619,6.9 -3.11392,8 -0.30774,1.1 -1.73507,3.5715 -3.17186,5.4921 -1.43679,1.9207 -3.37763,5.1827 -4.31298,7.249 -0.93535,2.0662 -2.79941,4.2574 -4.14236,4.8693 -1.76687,0.8051 -2.86564,2.6027 -3.9755,6.5041 -1.53282,5.3883 -6.75793,12.0743 -8.56376,10.9583 -0.49742,-0.3075 -1.16525,0.4804 -1.48408,1.7507 -0.31883,1.2703 -1.61699,2.8648 -2.8848,3.5433 -1.26781,0.6785 -2.87013,2.5101 -3.56071,4.0703 -0.69059,1.5601 -3.73779,5.1841 -6.77157,8.0533 -4.84863,4.5857 -5.93337,5.1681 -8.96627,4.814 -2.6981,-0.315 -3.45031,-0.044 -3.45031,1.2414 0,1.7675 -3.00632,4.9542 -4.67375,4.9542 -0.55895,0 -1.87352,0.9524 -2.92126,2.1164 -3.11678,3.4627 -10.15233,7.921 -16.69525,10.5797 -3.37367,1.3708 -7.21777,3.345 -8.54244,4.3869 -1.53968,1.2112 -3.24632,1.6843 -4.73106,1.3116 -1.27741,-0.3206 -2.90273,-0.2243 -3.61182,0.2139 -0.70909,0.4383 -2.04634,0.8526 -2.97166,0.9208 -3.14771,0.2319 -17.1168,15.5551 -25.86798,28.3756 -5.20156,7.6203 -10.96228,18.9032 -11.02583,21.5951 -0.0598,2.5347 -2.21605,10.6008 -3.27463,12.25 -1.43235,2.2315 -5.5215,1.4281 -7.41127,-1.456 z m 59.17674,-75.7086 c 2.02014,-0.844 5.50712,-3.1046 7.74883,-5.0234 2.24172,-1.9188 5.74742,-4.3158 7.79044,-5.3266 4.81423,-2.3819 9.35568,-5.7944 14.08482,-10.5834 2.08994,-2.1164 4.22607,-3.5847 4.74695,-3.2627 0.52088,0.3219 1.50183,-0.7541 2.17989,-2.391 1.20892,-2.9186 14.20556,-15.9983 15.8967,-15.9983 0.47297,0 1.40565,-1.3175 2.07263,-2.9277 0.66699,-1.6102 2.04608,-3.6819 3.06464,-4.6037 1.01857,-0.9218 2.15145,-3.0396 2.51752,-4.7063 1.38803,-6.3197 6.9573,-16.1835 8.57349,-15.1846 0.49881,0.3083 0.60505,1.0489 0.2361,1.6459 -0.40038,0.6478 -0.20538,0.7978 0.48369,0.3719 0.63498,-0.3924 1.15451,-1.5668 1.15451,-2.6096 0,-1.0429 1.28303,-4.7288 2.85119,-8.191 5.42036,-11.9672 6.14881,-13.8719 6.14931,-16.0788 2.8e-4,-1.2189 0.85374,-4.4661 1.89658,-7.2161 1.04284,-2.75 2.65243,-9.0458 3.57685,-13.9907 0.92443,-4.945 2.14631,-9.5517 2.7153,-10.2373 0.56899,-0.6856 0.80636,-1.8411 0.5275,-2.5678 -0.27886,-0.7267 0.12379,-5.565 0.89477,-10.7518 2.21158,-14.8784 1.99481,-30.8745 -0.55496,-40.9524 -3.46746,-13.705 -7.1036,-25.0591 -10.14218,-31.6697 -1.55977,-3.3933 -3.15057,-7.4232 -3.53511,-8.9554 -0.38455,-1.5322 -1.79553,-3.8821 -3.13552,-5.2221 -1.33998,-1.34 -3.277,-4.3975 -4.30449,-6.7946 -1.02749,-2.397 -2.33416,-4.3582 -2.9037,-4.3582 -0.56955,0 -1.03554,-0.6053 -1.03554,-1.345 0,-0.7398 -0.9,-2.1595 -2,-3.155 -1.1,-0.9955 -2,-2.6402 -2,-3.655 0,-1.0147 -0.4016,-1.845 -0.89244,-1.845 -0.49084,0 -2.54911,-2.1375 -4.57394,-4.75 -2.02483,-2.6125 -5.78573,-6.2733 -8.35756,-8.1352 -4.71009,-3.4097 -15.1084,-14.826 -16.33887,-17.9383 -0.36455,-0.9221 -2.36861,-3.0265 -4.45347,-4.6765 -2.08486,-1.65 -4.73822,-3.9 -5.89637,-5 -3.83599,-3.6434 -8.91536,-7.0235 -14.75287,-9.8174 -3.17104,-1.5177 -6.31679,-3.6422 -6.99055,-4.721 -0.67376,-1.0789 -1.72203,-1.9616 -2.32949,-1.9616 -0.60746,0 -1.91895,-0.9 -2.91444,-2 -0.99549,-1.1 -2.71635,-2 -3.82413,-2 -1.10779,0 -4.40623,-1.35 -7.32986,-3 -2.92364,-1.65 -5.79075,-3 -6.37135,-3 -0.58061,0 -2.35258,-0.9589 -3.93773,-2.1308 -1.58514,-1.172 -4.75056,-2.2991 -7.03425,-2.5048 -2.2837,-0.2057 -4.96962,-0.8115 -5.96872,-1.3462 -0.99909,-0.5347 -3.32795,-1.1651 -5.17525,-1.4008 -5.10265,-0.6512 -9.21408,-1.779 -10.66699,-2.9261 -1.71144,-1.3512 -36.61975,-2.1937 -41.19172,-0.9941 -4.69756,1.2326 -4.97514,4.2721 -1.03472,11.3303 1.68034,3.0099 3.83807,7.0475 4.79495,8.9725 0.95687,1.925 2.52727,4.088 3.48977,4.8067 1.44387,1.0781 2.56524,5.1933 1.41516,5.1933 -0.18417,0 -3.12465,-0.9158 -6.53441,-2.0352 -3.40976,-1.1194 -8.48422,-2.1319 -11.27658,-2.25 -7.13419,-0.3018 -7.92073,1.2642 -4.45887,8.8776 9.46621,20.8183 34.89076,46.5007 54.51726,55.0703 5.88985,2.5717 8.97798,3.3156 13.80249,3.3251 6.33424,0.012 14.58121,-2.1508 17.28495,-4.534 9.49049,-8.3653 12.13514,-11.2099 13.88705,-14.9369 2.1492,-4.5722 4.69326,-6.09 8.57482,-5.1158 3.56258,0.8941 3.77304,3.2247 0.85065,9.4197 -2.50137,5.3025 -12.27987,16.1792 -14.54565,16.1792 -1.4275,0 -8.07572,3.2381 -9.50658,4.6303 -0.68185,0.6635 -2.59809,1.5046 -4.25832,1.8693 -1.66023,0.3646 -3.47619,1.518 -4.03546,2.563 -0.8477,1.5839 -0.12885,2.8659 4.321,7.7063 2.93582,3.1934 7.18246,9.1643 9.43697,13.2687 4.21927,7.6812 11.27552,24.803 11.27552,27.3598 0,0.7923 0.64628,2.7145 1.43618,4.2716 0.7899,1.557 2.62299,5.4185 4.07355,8.581 2.27511,4.9602 3.01389,5.75 5.37861,5.75 4.32317,0 6.03133,4.8279 6.65382,18.8064 0.2864,6.4315 0.95521,13.3116 1.48623,15.2891 0.9944,3.7032 1.51552,24.2134 0.65087,25.617 -0.2668,0.4331 -0.75492,4.5303 -1.08472,9.1048 -0.64032,8.8816 -2.30271,16.8843 -3.68478,17.7385 -0.46434,0.2869 -0.62539,1.9668 -0.35789,3.733 0.38684,2.5541 0.29222,2.802 -0.46247,1.2112 -0.9123,-1.923 -0.95154,-1.9134 -1.01911,0.25 -0.0387,1.2375 0.34091,2.25 0.84349,2.25 0.50258,0 0.14509,2.1375 -0.79442,4.75 -0.93951,2.6125 -1.83078,6.775 -1.9806,9.25 -0.33462,5.5281 -2.34553,13.8117 -6.06893,25 -6.43398,19.3331 -7.0267,21.9003 -5.42606,23.5009 1.72013,1.7201 6.35904,1.3604 11.80602,-0.9155 z m 15.44659,-160.7851 c -3.85038,-0.8056 -4.873,-1.5281 -6.25,-4.4157 -0.90551,-1.8988 -1.64638,-4.9027 -1.64638,-6.6751 0,-1.7725 -0.47964,-4.7947 -1.06587,-6.7161 -1.3813,-4.5272 -1.28248,-12.8687 0.17323,-14.6228 1.97352,-2.3779 3.89264,-1.5938 3.89264,1.5905 0,2.033 1.43907,4.7279 4.59151,8.5982 7.94007,9.7483 11.8908,21.2742 7.8267,22.8337 -0.86998,0.3339 -1.88248,0.5538 -2.25,0.4888 -0.36751,-0.065 -2.73984,-0.5517 -5.27183,-1.0815 z M 499,1074.306 c -5.80459,-2.0745 -5.01203,-14.3403 1,-15.4761 0.825,-0.1559 3.46889,0.5126 5.87531,1.4854 l 4.37532,1.7688 -0.52621,4.6685 c -0.74793,6.6356 -4.97069,9.6097 -10.72442,7.5534 z M 536,1214 c 0,-0.55 -0.19844,-1 -0.44098,-1 -0.24254,0 -0.7191,0.45 -1.05902,1 -0.33992,0.55 -0.14148,1 0.44098,1 0.58246,0 1.05902,-0.45 1.05902,-1 z m 483.6625,209.9153 c -3.4764,-3.7356 -5.6625,-6.9721 -5.6625,-8.3833 0,-1.4577 -0.7317,-2.4901 -2,-2.8217 -1.1,-0.2877 -2,-1.2832 -2,-2.2123 0,-0.9291 -0.8377,-2.8837 -1.8615,-4.3436 -1.0238,-1.4599 -2.1692,-4.3419 -2.5453,-6.4044 -0.3761,-2.0625 -1.0712,-3.75 -1.5447,-3.75 -1.2562,0 -8.0485,-9.7352 -8.0485,-11.5356 0,-0.8421 -1.5303,-3.0614 -3.40067,-4.9317 -1.87036,-1.8704 -3.89672,-4.9038 -4.50302,-6.7409 -0.98534,-2.9856 -1.87032,-3.6016 -8.33631,-5.803 -3.97867,-1.3545 -7.97522,-3.204 -8.88122,-4.11 -0.906,-0.906 -3.38686,-2.1914 -5.51303,-2.8564 -9.67179,-3.0252 -33.68213,-16.1727 -37.12979,-20.3314 -0.999,-1.2051 -2.51777,-2.641 -3.37505,-3.191 -6.18549,-3.9684 -8.93368,-6.2496 -9.4553,-7.8487 -0.80428,-2.4656 -3.72192,-5.2995 -6.29786,-6.1171 -1.14933,-0.3648 -4.2687,-2.7717 -6.93192,-5.3487 -4.26134,-4.1234 -6.43947,-7.8095 -8.61459,-14.5786 -0.33457,-1.0412 -0.86995,-1.6315 -1.18973,-1.3117 -0.99839,0.9983 -5.48123,-4.5938 -6.07918,-7.5835 -0.31318,-1.5659 -1.63207,-3.5434 -2.93088,-4.3944 -1.2988,-0.851 -2.36145,-2.1706 -2.36145,-2.9323 0,-0.7618 -0.62686,-1.385 -1.39301,-1.385 -1.56679,0 -2.59948,-2.0997 -2.6223,-5.3318 -0.0125,-1.7665 -0.19492,-1.8903 -0.98469,-0.6682 -0.71843,1.1117 -0.97334,0.5015 -0.98469,-2.357 -0.0117,-2.9533 -0.35476,-3.7267 -1.46412,-3.301 -0.9136,0.3506 -1.68662,-0.2564 -2.09256,-1.643 -0.35407,-1.2095 -1.59276,-4.2158 -2.75265,-6.6809 -1.15989,-2.465 -2.17665,-6.065 -2.25946,-8 -0.19992,-4.6715 -1.47034,-9.1214 -2.43406,-8.5258 -0.42581,0.2632 -0.97529,-2.3016 -1.22107,-5.6995 -0.25069,-3.4658 -0.9615,-6.3495 -1.61913,-6.5687 -0.78809,-0.2627 -1.19303,-3.7226 -1.23565,-10.5574 -0.0443,-7.1065 -0.33561,-9.4894 -0.96777,-7.9167 -0.49742,1.2375 -1.14886,2.25 -1.44765,2.25 -0.2988,0 -0.47593,-7.1421 -0.39364,-15.8713 0.0823,-8.7291 -0.16592,-16.3818 -0.55158,-17.0058 -0.75279,-1.218 1.3762,-8.1229 2.50456,-8.1229 0.37331,0 0.75008,-4.2203 0.83726,-9.3784 0.18097,-10.7067 0.35344,-10.4897 -8.91779,-11.2202 -6.97635,-0.5498 -20.83384,-3.2421 -23.19732,-4.507 C 826.8112,1153.3638 826,1152.202 826,1151.3128 c 0,-2.012 7.9159,-9.2795 10.1283,-9.2987 0.89557,-0.01 5.28924,-2.0391 9.76371,-4.5141 4.47446,-2.475 8.60157,-4.5 9.17135,-4.5 1.97665,0 7.45949,-3.3134 11.8307,-7.1496 3.41676,-2.9985 4.69565,-3.6059 5.75,-2.7308 1.06086,0.8804 1.35594,0.7091 1.35594,-0.7871 0,-1.2506 1.77702,-2.9366 5.13544,-4.8724 3.39316,-1.9558 5.60295,-4.0627 6.51342,-6.2101 0.75789,-1.7875 1.75071,-3.25 2.20627,-3.25 0.45556,0 1.35156,-1.6875 1.99111,-3.75 1.44794,-4.6695 4.53687,-8.6149 14.40376,-18.3973 4.2625,-4.2261 7.75,-8.0724 7.75,-8.5474 0,-0.475 1.50617,-2.4255 3.34704,-4.3345 1.84087,-1.9089 4.59155,-5.4958 6.11262,-7.9708 3.12408,-5.0833 12.52489,-15.1276 13.55985,-14.4879 0.37348,0.2308 1.29066,-0.7231 2.03817,-2.1199 0.74752,-1.3967 2.9467,-3.2028 4.88707,-4.0136 1.94038,-0.8107 4.4341,-2.3223 5.5416,-3.359 2.40274,-2.2491 10.90471,-6.0196 13.5735,-6.0196 1.04173,0 2.60093,-1.0788 3.46489,-2.3974 1.69311,-2.584 10.91144,-7.0691 12.50504,-6.0842 0.53362,0.3298 0.97022,0.1719 0.97022,-0.3508 0,-1.3929 6.33558,-3.6997 18.63538,-6.785 10.39612,-2.6078 11.97752,-2.7272 36.67212,-2.77 21.6202,-0.037 25.9579,0.1932 26.7347,1.4214 0.5292,0.8367 0.9337,0.9696 0.9425,0.3096 0.01,-0.636 0.8028,-0.9983 1.7653,-0.8051 0.9625,0.1932 3.4203,0.6182 5.4618,0.9445 3.2133,0.5136 3.7921,1.0247 4.3093,3.8052 0.769,4.1346 -1.1767,8.7252 -6.9581,16.4162 -5.6073,7.4593 -5.9528,9.7594 -1.313,8.7415 1.7875,-0.3922 6.0746,-2.1055 9.5269,-3.8074 7.1669,-3.533 9.0846,-3.112 10.4876,2.3024 0.6267,2.4187 0.4647,3.7059 -0.6189,4.9177 -0.8073,0.9028 -1.7879,3.8914 -2.1791,6.6414 -0.3911,2.75 -1.2742,5.675 -1.9624,6.5 -0.6882,0.825 -1.791,3.1812 -2.4506,5.2361 -0.6597,2.0548 -1.6309,4.0027 -2.1583,4.3287 -0.5274,0.3259 -1.8942,2.5822 -3.0372,5.0139 -1.143,2.4317 -2.4429,4.4213 -2.8887,4.4213 -0.4457,0 -1.1146,1.3849 -1.4863,3.0775 -0.7282,3.3153 -14.3588,18.8362 -18.233,20.7615 -1.2375,0.615 -2.25,1.7293 -2.25,2.4763 0,1.9716 -17.7078,18.8518 -23,21.9251 -2.475,1.4373 -6.525,3.4019 -9,4.3659 -10.0813,3.9265 -14.673,9.6648 -13.3907,16.7344 0.4149,2.2876 0.6581,4.8653 0.5404,5.7282 -0.1177,0.8629 0.6905,3.5629 1.7962,6 2.138,4.7129 2.73,12.3953 1.0359,13.4424 -0.5601,0.3461 -2.5396,-0.3109 -4.3989,-1.4601 -8.21232,-5.0755 -20.5829,-7.3034 -20.5829,-3.7069 0,0.6519 -0.9,2.8645 -2,4.9169 -1.1,2.0523 -2,5.1128 -2,6.8009 0,1.6882 -0.42091,3.8559 -0.93537,4.8171 -2.32693,4.348 -5.54996,34.2878 -6.52111,60.577 -0.35276,9.5492 -0.12095,12.632 1.15146,15.3134 1.24156,2.6164 1.46276,5.2046 1.00238,11.7283 -0.42746,6.0572 -0.25997,8.4823 0.60595,8.7739 0.87704,0.2953 0.8061,0.876 -0.26556,2.1738 -1.2876,1.5593 -1.27577,1.9072 0.099,2.9126 0.85871,0.628 1.88311,3.288 2.27643,5.9112 0.39333,2.6231 1.13626,4.509 1.65097,4.1909 0.51995,-0.3213 0.98737,1.3365 1.05182,3.7307 0.0638,2.3699 0.3218,3.5215 0.57333,2.559 0.77486,-2.9651 2.31067,-1.9349 2.31067,1.55 0,1.815 0.48611,3.7861 1.08025,4.3803 0.59414,0.5941 1.21661,3.7368 1.38326,6.9838 0.19562,3.8112 1.05195,7.1322 2.41601,9.3698 1.16215,1.9063 2.12039,4.3661 2.12941,5.4661 0.009,1.1 1.3607,4.6509 3.00374,7.8909 1.64303,3.24 2.98733,6.299 2.98733,6.7978 0,2.2826 5.98503,5.9761 15.80223,9.752 5.8838,2.263 11.9718,4.7771 13.5288,5.5869 1.5571,0.8098 3.6681,1.4724 4.691,1.4724 1.023,0 2.1426,0.4573 2.4881,1.0163 0.3454,0.559 1.0377,0.7631 1.5384,0.4537 0.7891,-0.4877 6.2112,0.6394 10.9515,2.2764 1.9228,0.6641 4.5925,1.0489 14.7972,2.1331 4.5634,0.4848 8.542,1.1263 8.8413,1.4256 1.2303,1.2303 -0.9,4.5606 -3.6444,5.6974 -1.6167,0.6696 -4.0999,2.293 -5.5183,3.6075 -1.4184,1.3145 -3.4557,2.39 -4.5273,2.39 -1.0717,0 -1.9485,0.3902 -1.9485,0.8671 0,0.4769 -1.7381,2.0174 -3.8625,3.4232 -3.5775,2.3675 -3.9834,2.4353 -5.5,0.9186 -1.5167,-1.5166 -1.6375,-1.4831 -1.6375,0.4544 0,2.9969 -2.5581,4.9488 -3.7334,2.8486 -0.6239,-1.1149 -1.2676,1.2003 -2.1258,7.6464 -0.677,5.085 -1.6549,9.7563 -2.1732,10.3807 -0.5182,0.6244 -0.7761,4.0211 -0.5732,7.5481 0.4028,7.0008 -0.565,10.9129 -2.6996,10.9129 -0.7534,0 -3.9179,-2.7381 -7.0323,-6.0847 z m -40.50663,-75.8044 c 0.29694,-6.7672 0.1458,-7.4552 -1.7957,-8.1734 -2.20623,-0.8161 -5.36017,-8.2392 -5.36017,-12.6156 0,-1.2771 -0.37777,-2.3219 -0.83948,-2.3219 -1.12851,0 -2.88159,-3.9963 -3.72479,-8.4909 -0.37858,-2.018 -1.75461,-5.7706 -3.05784,-8.3391 -1.30324,-2.5685 -2.3714,-6.0775 -2.3737,-7.7979 -0.002,-1.7203 -0.72619,-4.8558 -1.60862,-6.9678 -1.10916,-2.6546 -1.46277,-5.7021 -1.14552,-9.8721 0.2524,-3.3177 0.12942,-6.9322 -0.27329,-8.0322 -0.92368,-2.523 -2.13429,-20.3364 -2.44658,-36 -0.13159,-6.6 -0.784,-15.9982 -1.44979,-20.8849 -0.85633,-6.2852 -0.89889,-9.1966 -0.14546,-9.95 0.58579,-0.5858 1.06784,-3.3376 1.07123,-6.1151 0.003,-2.7775 0.67839,-6.3389 1.5,-7.9143 0.82161,-1.5754 1.49384,-3.6579 1.49384,-4.6279 0,-2.2999 2.68225,-8.6934 3.98485,-9.4984 0.55833,-0.3451 1.01515,-1.965 1.01515,-3.5998 0,-1.6852 0.63307,-3.2153 1.46193,-3.5334 0.80407,-0.3085 1.76272,-1.5087 2.13035,-2.6669 1.83825,-5.7919 9.78714,-18.4306 12.95803,-20.6033 1.89733,-1.3001 3.44969,-2.8895 3.44969,-3.532 0,-1.4842 6.24757,-7.3535 11.66009,-10.954 5.42561,-3.6093 6.34421,-6.9623 2.89385,-10.5637 -1.40467,-1.4662 -2.55394,-3.3735 -2.55394,-4.2386 0,-1.8646 2.55004,-4.2138 3.76139,-3.4652 0.46691,0.2886 2.62421,0.068 4.79381,-0.4908 2.1696,-0.5586 6.4198,-1.1367 9.4448,-1.2847 3.025,-0.148 5.95,-0.3916 6.5,-0.5414 0.55,-0.1499 1.3375,-0.2192 1.75,-0.154 0.4125,0.065 0.75,-0.5783 0.75,-1.4299 0,-0.8515 1.2375,-2.0934 2.75,-2.7598 4.0976,-1.8052 10.2235,-6.0615 10.2376,-7.1132 0.025,-1.861 3.3889,-4.5787 5.6674,-4.5787 2.159,0 8.2497,-5.1868 10.845,-9.2355 0.55,-0.858 2.4625,-3.6536 4.25,-6.2124 1.7875,-2.5588 3.25,-5.0798 3.25,-5.6022 0,-0.5225 0.4717,-0.9499 1.0483,-0.9499 0.5765,0 1.6839,-1.4625 2.4608,-3.25 0.777,-1.7875 1.4658,-2.575 1.5307,-1.75 0.065,0.825 0.571,0.2597 1.1246,-1.2562 0.5535,-1.516 1.418,-2.5019 1.921,-2.191 0.503,0.3109 0.9146,-0.099 0.9146,-0.9104 0,-0.8117 0.4946,-1.6406 1.0991,-1.8421 0.7437,-0.2479 0.8647,-2.242 0.3743,-6.1671 -0.5904,-4.7249 -1.026,-5.7038 -2.3491,-5.278 -3.0896,0.9943 -20.6309,7.345 -22.3743,8.1005 -0.9625,0.417 -2.4799,0.4782 -3.3719,0.1359 -2.4988,-0.9589 -1.1251,-5.4476 4.5554,-14.886 5.3183,-8.8366 9.7152,-17.9392 10.2432,-21.2056 0.3073,-1.9012 -0.1462,-1.9837 -9.1767,-1.6705 -5.225,0.1812 -12.65,0.8562 -16.5,1.5 -3.85,0.6438 -8.8,0.9371 -11,0.6518 -2.2,-0.2854 -5.9998,-0.1701 -8.444,0.256 -2.4939,0.4348 -4.842,0.3767 -5.3511,-0.1324 -1.0753,-1.0753 -4.6761,-0.08 -10.16634,2.8099 -2.17879,1.1469 -4.92155,2.0852 -6.09501,2.0852 -1.17347,0 -2.95056,0.9028 -3.9491,2.0061 -0.99854,1.1034 -2.03938,1.7823 -2.31298,1.5087 -0.2736,-0.2736 -1.17454,0.061 -2.00208,0.7439 -1.19887,0.989 -1.59013,0.9873 -1.92534,-0.01 -0.64329,-1.9113 -2.3815,-1.4869 -2.04789,0.5 0.16161,0.9625 -0.25161,1.6432 -0.91827,1.5126 -0.66666,-0.1305 -2.41987,0.882 -3.89602,2.25 -1.47615,1.3681 -3.23026,2.4874 -3.89801,2.4874 -0.66776,0 -2.83187,1.4625 -4.80915,3.25 -1.97727,1.7875 -5.7128,4.825 -8.30118,6.75 -2.58838,1.925 -6.59638,5.1875 -8.90667,7.25 -2.31029,2.0625 -4.52069,3.75 -4.91201,3.75 -0.39131,0 -4.51432,3.4875 -9.16223,7.75 -4.64791,4.2625 -9.3497,8.1606 -10.44842,8.6625 -1.09872,0.5019 -2.28133,2.0769 -2.62803,3.5 -0.3467,1.4231 -1.68692,3.8595 -2.97826,5.4142 -1.29135,1.5547 -2.34791,3.4447 -2.34791,4.1999 0,1.5857 -5.21557,9.5775 -7.4732,11.4512 -0.83974,0.6969 -1.5268,1.7625 -1.5268,2.368 0,0.6055 -2.5875,3.5916 -5.75,6.6358 -3.1625,3.0442 -7.29597,7.8476 -9.18548,10.6741 -2.0485,3.0644 -3.96619,4.9355 -4.75,4.6347 -0.92413,-0.3546 -1.31742,0.4926 -1.32429,2.8526 -0.005,1.8464 -1.18396,5.832 -2.61908,8.857 -1.43512,3.025 -3.02638,7.075 -3.53614,9 -2.27853,8.6045 -3.83501,16.7892 -3.83501,20.1663 0,2.0169 -0.49407,3.8317 -1.09794,4.033 -0.61223,0.2041 -1.1576,3.0059 -1.23279,6.3333 -0.0742,3.2821 -0.49365,6.2273 -0.9322,6.545 -0.43855,0.3178 -1.06407,3.4562 -1.39006,6.9744 -0.51814,5.5922 -0.40533,6.2413 0.89689,5.1605 1.26837,-1.0526 1.59158,-0.6033 2.17638,3.0257 0.37774,2.344 0.70252,4.9368 0.72174,5.7618 0.27844,11.9518 2.20677,34.7153 3.02424,35.7003 0.58831,0.7089 1.04465,3.1005 1.0141,5.3147 -0.0306,2.2143 0.33009,3.7876 0.80145,3.4962 1.08584,-0.671 3.51294,6.3245 3.11863,8.9888 -0.1628,1.1 0.0266,1.6839 0.42083,1.2976 1.06456,-1.0431 3.04091,1.3219 3.87205,4.6334 0.40186,1.6011 1.60276,4.0199 2.66867,5.3749 1.06591,1.3551 1.93801,3.0623 1.93801,3.7938 0,0.7315 0.9,1.8116 2,2.4003 1.1,0.5887 2,1.8699 2,2.8471 0,0.9772 1.35,2.7749 3,3.9948 1.65,1.2199 3,3.0145 3,3.988 0,0.9736 0.54754,2.3176 1.21675,2.9869 0.66922,0.6692 2.66344,3.7967 4.43161,6.95 1.76816,3.1532 3.66559,5.6307 4.2165,5.5054 1.27498,-0.2899 12.13514,10.0903 12.13514,11.5988 0,0.6209 0.57798,1.129 1.28439,1.129 0.70642,0 2.14023,1.4488 3.18625,3.2196 2.75708,4.6673 7.99117,9.6072 10.97219,10.3554 1.42049,0.3565 2.91447,1.1605 3.31994,1.7866 0.96061,1.4833 15.92605,11.6384 17.15139,11.6384 0.51738,0 1.8256,1.125 2.90718,2.5 1.08158,1.375 2.44414,2.5 3.02792,2.5 0.58378,0 3.66902,1.5422 6.85608,3.4272 3.18706,1.885 6.09428,3.1225 6.46048,2.75 0.3662,-0.3725 0.81172,-4.0023 0.99005,-8.0663 z M 922.1068,1190.1472 c -6.33917,-2.3768 -7.1053,-4.1493 -3.71487,-8.5944 3.18443,-4.175 8.89481,-8.027 15.4189,-10.4009 2.49682,-0.9086 5.96484,-3.1104 7.70673,-4.8929 3.49474,-3.5764 4.48244,-3.3654 4.48244,0.9573 0,3.6034 -2.00822,7.5392 -5.5023,10.7837 -1.48079,1.375 -3.53455,4.1422 -4.56393,6.1492 -1.53256,2.9882 -7.56169,8.1489 -9.0518,7.748 -0.21009,-0.057 -2.35891,-0.844 -4.77517,-1.75 z m 78.6902,-118.8275 c -0.93667,-0.2465 -1.97949,-1.3193 -2.3174,-2.384 -0.33791,-1.0646 -1.21091,-1.9357 -1.94,-1.9357 -1.62021,0 -2.5396,-2.2017 -2.5396,-6.0818 0,-3.0825 1.93578,-4.1644 2.09019,-1.1682 0.0496,0.9625 0.50978,0.2979 1.02261,-1.4769 1.37783,-4.7684 5.396,-6.1477 9.4798,-3.254 2.6278,1.862 4.4074,5.1616 4.4074,8.1721 0,2.1675 -6.0886,8.9673 -7.7837,8.6928 -0.3939,-0.064 -1.4827,-0.3177 -2.4193,-0.5643 z m -92.11389,238.4928 c -0.31922,-0.7977 -0.55618,-0.5608 -0.60416,0.6042 -0.0434,1.0541 0.19293,1.6448 0.52522,1.3125 0.33229,-0.3323 0.36781,-1.1948 0.0789,-1.9167 z m -47.98496,-97.9168 c 0.17231,-1.1291 -0.1256,-2.805 -0.66202,-3.7243 -0.74084,-1.2696 -0.98262,-0.6096 -1.00572,2.7453 -0.0299,4.3494 1.05609,4.9869 1.66774,0.979 z m 9.96413,-9.1457 c -0.27741,-0.6875 -0.50439,-0.125 -0.50439,1.25 0,1.375 0.22698,1.9375 0.50439,1.25 0.27741,-0.6875 0.27741,-1.8125 0,-2.5 z m -12,-15 c -0.27741,-0.6875 -0.50439,-0.125 -0.50439,1.25 0,1.375 0.22698,1.9375 0.50439,1.25 0.27741,-0.6875 0.27741,-1.8125 0,-2.5 z m 213.92612,-133.4949 c -1.0924,-1.0924 -1.8415,0.6448 -1.0572,2.4518 0.7437,1.7133 0.7976,1.7118 1.212,-0.035 0.2385,-1.0055 0.1688,-2.093 -0.1548,-2.4166 z m -325.21347,286.2107 -2.53416,-2.5341 0.60653,-32.2159 c 0.33359,-17.7187 1.07183,-34.5567 1.64053,-37.4177 0.73713,-3.7084 0.71666,-5.7949 -0.0713,-7.2672 -1.13826,-2.1269 -0.76857,-15.9978 0.51387,-19.2809 0.37597,-0.9625 0.24148,-1.75 -0.29886,-1.75 -0.62831,0 -1.02589,-17.7522 -1.10301,-49.25 -0.11954,-48.8282 -1.68993,-100.5081 -3.10107,-102.053 -0.40341,-0.4417 -2.442,0.205 -4.5302,1.4371 -5.19778,3.0668 -17.49961,3.7147 -26.49726,1.3956 -11.88402,-3.063 -19.85874,-7.6303 -26.25,-15.0341 -3.1625,-3.6634 -5.75,-6.9786 -5.75,-7.3669 0,-1.3853 10.9917,-7.3366 17.19166,-9.3082 7.6577,-2.4351 19.74223,-1.998 29.61797,1.0713 6.93999,2.1569 8.48842,1.4021 6.13709,-2.9913 -0.664,-1.2408 -2.23816,-6.3384 -3.49812,-11.3282 -5.14992,-20.395 -9.01627,-28.529 -18.69945,-39.3396 l -3.82228,-4.2674 -1.71344,3.0111 c -0.94238,1.656 -2.11382,3.0138 -2.60319,3.0173 -1.29581,0.01 -3.43716,2.9686 -5.23985,7.2417 -1.14211,2.7072 -2.99262,4.536 -6.72312,6.6442 -7.00029,3.956 -10.27366,4.5486 -23.64727,4.2814 -13.76865,-0.2752 -22.71638,-2.4444 -24.2852,-5.8876 -0.56971,-1.2504 -1.4136,-2.2734 -1.87532,-2.2734 -1.50217,0 -0.89045,-2.7983 1.66052,-7.596 1.375,-2.586 2.5,-5.2016 2.5,-5.8124 0,-0.6108 0.83659,-1.633 1.8591,-2.2715 1.0225,-0.6386 2.15066,-2.6189 2.50701,-4.40067 1.62805,-8.14025 15.41689,-15.66746 34.12612,-18.62915 3.20319,-0.50707 5.08813,-1.32783 5.25983,-2.29028 0.28943,-1.62242 -8.77196,-12 -10.47804,-12 -0.57081,0 -3.22848,-2.02283 -5.90593,-4.49518 -2.67745,-2.47235 -5.42685,-4.28791 -6.10977,-4.03458 -0.68293,0.25334 -2.88607,-1.31664 -4.89586,-3.48884 -2.91154,-3.14682 -4.2774,-3.90189 -6.72085,-3.71543 -2.652,0.20238 -3.30947,-0.27306 -4.86202,-3.51597 -1.12797,-2.35606 -2.49033,-3.75 -3.66501,-3.75 -1.02833,0 -2.41795,-0.66061 -3.08805,-1.46803 -0.67009,-0.80742 -1.51269,-1.42913 -1.87244,-1.38158 -1.97553,0.26111 -2.95252,-0.41259 -4.03102,-2.77962 -0.65887,-1.44607 -1.46636,-2.36081 -1.79442,-2.03275 -0.32806,0.32806 -1.70686,-0.27696 -3.06401,-1.34449 -1.35714,-1.06753 -4.10938,-2.21184 -6.11609,-2.5429 -2.0067,-0.33106 -4.87731,-1.06886 -6.37914,-1.63956 -4.78363,-1.81779 -7.37926,-0.3023 -12.24274,7.14807 C 605.037,940.77307 603,944.39046 603,944.99777 c 0,3.57783 -15.36734,13.1032 -23.5,14.56635 -2.2,0.39581 -4.88763,1.3308 -5.97251,2.07776 -1.18592,0.81654 -4.67517,1.35812 -8.75,1.35812 H 558 l 0.003,-4.75 c 0.004,-8.21092 6.40467,-29.25 8.89816,-29.25 0.46713,0 1.12975,-1.40216 1.4725,-3.11592 0.34275,-1.71375 1.974,-4.65441 3.625,-6.53479 1.651,-1.88039 3.00182,-3.80399 3.00182,-4.27468 0,-1.20671 -6.81011,-1.8645 -7.91053,-0.76408 -0.54546,0.54546 -2.09155,0.2106 -3.86525,-0.83715 -2.27348,-1.34298 -3.85312,-1.5586 -6.84019,-0.93367 -2.13622,0.44692 -5.45903,0.75976 -7.38403,0.69519 -4.40366,-0.14769 -6.86422,-0.17211 -9.88063,-0.098 -1.30935,0.0321 -2.68235,-0.42975 -3.05112,-1.02644 -0.46734,-0.75616 -1.71551,-0.7832 -4.11938,-0.0892 -1.89688,0.54762 -4.79887,0.93331 -6.44887,0.85711 -1.65,-0.0762 -3.74198,0.17568 -4.64885,0.55974 -0.90687,0.38407 -1.94668,0.21641 -2.31069,-0.37257 -0.43078,-0.69703 -1.2704,-0.74518 -2.40503,-0.13795 -1.00825,0.5396 -2.33875,0.56486 -3.15577,0.0599 -0.82711,-0.51118 -1.89416,-0.47335 -2.57448,0.0913 -0.75066,0.62299 -2.17094,0.58066 -4.01275,-0.1196 -1.92054,-0.73019 -2.96215,-0.74995 -3.19195,-0.0606 -0.19105,0.57315 -1.62901,0.76574 -3.26874,0.4378 l -2.92763,-0.58553 0.61333,4.47474 c 0.37771,2.75568 0.14696,5.34614 -0.60064,6.74304 C 494.49318,928.68403 486.79926,938 485.42847,938 c -0.78566,0 -1.45337,0.7875 -1.4838,1.75 -0.062,1.96087 -5.38981,6.58333 -7.58789,6.58333 -0.78342,0 -2.44308,0.9375 -3.68812,2.08334 -1.29303,1.18999 -3.96011,2.21707 -6.21981,2.39521 -3.27553,0.25823 -4.43001,-0.18278 -6.71098,-2.56359 -2.33293,-2.43506 -2.77306,-3.78474 -2.87354,-8.81189 -0.0653,-3.26502 0.61611,-9.01277 1.51415,-12.77277 0.89804,-3.76 1.39531,-7.22062 1.10505,-7.69027 -0.29025,-0.46965 -1.87342,-0.3848 -3.51815,0.18855 -1.64472,0.57336 -3.64536,0.79113 -4.44587,0.48395 -0.8005,-0.30718 -1.71255,-0.14253 -2.02677,0.36589 -0.31422,0.50841 -2.12527,0.86597 -4.02455,0.79457 -1.89929,-0.0714 -4.24411,0.55925 -5.21072,1.40144 -0.96661,0.8422 -2.3351,1.32244 -3.04109,1.06721 -0.70599,-0.25523 -1.89973,0.0473 -2.65276,0.67223 -1.02581,0.85134 -1.4674,0.84147 -1.76102,-0.0394 -0.28156,-0.8447 -0.80159,-0.77606 -1.84724,0.24382 -2.19867,2.14448 -13.3939,5.2061 -16.33635,4.4676 -3.33397,-0.83678 -5.22719,-4.18149 -3.52668,-6.23049 0.98491,-1.18674 1.39088,-1.22493 2.02991,-0.19095 0.63237,1.0232 1.06744,0.96105 2.08827,-0.29829 0.70922,-0.87491 2.63949,-2.05971 4.28949,-2.63288 4.23385,-1.47073 11.81214,-3.67744 13,-3.78544 4.03284,-0.3667 8.5,-1.75072 8.5,-2.63348 0,-0.58392 0.71561,-0.78707 1.59024,-0.45144 0.87464,0.33562 2.11214,0.28429 2.75,-0.11409 0.63787,-0.39837 2.05976,-0.83488 3.15976,-0.97002 8.00707,-0.98372 16.5,-2.72668 16.5,-3.38622 0,-0.43514 -0.84054,-1.05793 -1.86787,-1.38399 -1.02733,-0.32606 -3.96551,-2.57425 -6.52929,-4.99597 -5.03814,-4.75898 -8.01419,-11.42106 -9.62487,-21.54597 -0.48122,-3.025 -1.11254,-6.59166 -1.40292,-7.9259 -0.29038,-1.33425 -0.005,-3.05605 0.63419,-3.82622 0.69807,-0.84112 0.7885,-1.66938 0.22646,-2.0741 -0.51464,-0.37058 -1.03216,-1.997 -1.15005,-3.61428 -0.25569,-3.50771 1.44607,-6.02705 3.12816,-4.63103 0.63165,0.52422 3.82457,0.79164 7.09536,0.59425 3.2708,-0.19738 6.40679,-0.0651 6.96887,0.29389 1.0007,0.63918 1.54824,0.80588 3.47651,1.05839 0.525,0.0688 2.1941,1.3625 3.70911,2.875 1.51502,1.5125 3.82767,2.75 5.13924,2.75 2.5106,0 4.66428,3.05493 7.74329,10.98363 1.14122,2.93873 1.77318,3.61765 2.40932,2.58835 1.46312,-2.36738 5.65782,3.64703 7.97038,11.42802 1.14424,3.85 2.07902,7.75536 2.07728,8.67857 -0.009,4.70652 7.53499,6.13409 18.64906,3.52906 3.66292,-0.85855 10.45585,-1.00754 23.5,-0.51543 10.09127,0.38071 23.64061,0.89255 30.10964,1.13741 7.34842,0.27815 12.32934,0.91616 13.27417,1.7003 0.83176,0.6903 1.79751,0.96987 2.14612,0.62127 0.3486,-0.34861 1.21698,-0.14985 1.92973,0.44168 0.83237,0.69081 0.55608,-1.01137 -0.77242,-4.75867 -1.55018,-4.37263 -2.09364,-8.46461 -2.16935,-16.33419 -0.13198,-13.71834 1.43882,-19.87672 6.43708,-25.23687 2.14104,-2.29606 3.8928,-4.45982 3.8928,-4.80837 0,-1.38808 5.29677,-3.05799 6.35213,-2.00263 0.57633,0.57633 1.8788,1.04787 2.89438,1.04787 1.01558,0 2.61308,1.35116 3.55,3.00257 0.93692,1.65142 2.41894,3.23388 3.29338,3.51657 0.87444,0.2827 2.05219,1.51904 2.61722,2.74743 4.76754,10.36468 7.79973,16.46718 8.81134,17.73343 3.33913,4.17967 5.54782,19.0103 3.24449,21.78564 -0.65104,0.78446 -1.25411,4.08397 -1.34015,7.33224 -0.12777,4.82358 0.0883,5.70286 1.17884,4.79778 1.02782,-0.85302 2.00671,-0.37304 4.25134,2.08451 1.78628,1.95572 3.07481,2.71648 3.32579,1.96356 0.68359,-2.05077 4.70757,-0.0842 6.35789,3.10714 0.83309,1.61102 2.18426,2.92913 3.0026,2.92913 1.37329,0 3.69307,0.99015 7.46075,3.18446 0.825,0.48048 2.2875,1.13802 3.25,1.4612 0.9625,0.32318 1.75,1.46544 1.75,2.53836 0,1.43322 0.4841,1.79711 1.82473,1.37161 1.26624,-0.40189 2.22308,0.16518 3.12625,1.85278 0.71584,1.33756 1.85469,2.21966 2.53077,1.96022 1.88528,-0.72345 8.06261,3.33593 9.33883,6.13694 0.6251,1.37193 1.88881,2.49443 2.80824,2.49443 1.58104,0 8.14074,6.29851 11.34194,10.89033 0.80892,1.16032 2.18009,2.10967 3.04705,2.10967 2.1565,0 8.98219,7.15429 8.98219,9.41461 0,1.51353 0.25959,1.61484 1.5,0.58539 1.1178,-0.92769 1.5,-0.94385 1.5,-0.0634 0,0.64981 0.45,0.90335 1,0.56343 0.55,-0.33992 1.00678,-1.60398 1.01506,-2.80902 0.0212,-3.09137 2.21117,-9.01263 4.52322,-12.23017 6.32019,-8.79539 8.36728,-11.16055 11.21785,-12.96081 1.74175,-1.1 3.18416,-2.7646 3.20535,-3.69911 0.0212,-0.93451 1.63792,-2.91903 3.59275,-4.41005 3.20108,-2.44158 3.70732,-2.55786 5.09497,-1.17022 3.11734,3.11735 5.62168,12.96175 6.10237,23.98806 0.4042,9.27163 0.19623,11.28455 -1.5498,15 -1.10915,2.36023 -2.31362,5.30382 -2.67659,6.54132 -0.36298,1.2375 -1.01129,2.25 -1.44069,2.25 -0.42941,0 -1.58048,1.77349 -2.55793,3.9411 -0.97745,2.1676 -2.3958,4.17848 -3.15187,4.46861 -0.75608,0.29014 -1.37469,1.68093 -1.37469,3.09065 0,2.13909 5.80048,14.41632 11.57507,24.49962 0.78745,1.375 2.58198,4.975 3.98785,8 1.40587,3.025 3.44097,7.1343 4.52245,9.1317 1.85553,3.4271 2.79834,6.3078 6.58443,20.1183 1.6776,6.1194 2.80345,7.1494 3.82566,3.5 0.34663,-1.2375 1.03612,-3.15 1.5322,-4.25 2.19971,-4.8776 4.97234,-14.1654 4.97234,-16.6563 0,-1.4991 0.49533,-3.0318 1.10074,-3.406 1.66845,-1.0311 0.25104,-6.2309 -2.63268,-9.658 -2.79787,-3.3251 -5.46806,-9.0614 -5.46806,-11.7468 0,-0.9476 -0.9,-2.5374 -2,-3.5329 -1.1,-0.9955 -2,-2.3461 -2,-3.0013 0,-0.6553 -0.77606,-2.7231 -1.72458,-4.59504 -3.01071,-5.94194 -2.07461,-34.48944 1.30027,-39.65364 1.71878,-2.63004 5.7825,-2.96283 10.76386,-0.88149 5.05879,2.1137 11.67824,10.51937 17.62731,22.38391 l 5.41457,10.79859 2.22823,-2.06506 c 1.22552,-1.13578 3.97261,-5.42225 6.10463,-9.5255 5.44144,-10.47251 6.78249,-12.32019 14.94025,-20.58454 3.97355,-4.02547 7.98875,-8.92927 8.92266,-10.89735 0.96457,-2.03268 3.25838,-4.44971 5.31041,-5.59568 9.51544,-5.31394 13.01911,-7.7086 17.02028,-11.63288 2.3833,-2.3375 5.29151,-4.26618 6.46269,-4.28596 1.17118,-0.0198 3.32003,-1.03228 4.77523,-2.25 2.24057,-1.87493 2.74275,-3.28618 3.27873,-9.21404 0.40857,-4.51881 0.24053,-7.53168 -0.4741,-8.5 -0.88409,-1.19793 -1.01965,-0.9523 -0.67319,1.21974 0.23861,1.49585 0.10072,2.51386 -0.30641,2.26224 -0.40714,-0.25163 -0.93571,-1.78924 -1.1746,-3.41693 -0.23889,-1.62768 -0.0658,-2.73163 0.3847,-2.45322 1.36966,0.84649 0.91508,-0.65866 -0.68094,-2.25469 C 844.86142,901.71856 844.3797,893 845.92775,893 c 0.52485,0 0.68518,-2.35025 0.36918,-5.41192 -0.45896,-4.44695 -0.19047,-5.92884 1.50577,-8.311 1.13538,-1.59449 2.34444,-4.01514 2.6868,-5.37923 0.96115,-3.82952 10.7842,-13.50259 14.45813,-14.23738 2.72724,-0.54544 3.56454,-0.1512 6.34703,2.98847 4.16757,4.70255 4.6744,5.63225 4.91746,9.02035 0.11169,1.55689 0.47612,3.05571 0.80984,3.33071 1.72964,1.4253 7.25836,22.33053 7.73158,29.23469 0.29274,4.27092 0.65833,7.76531 0.81243,7.76531 0.1541,0 1.63018,-1.35 3.28018,-3 1.65,-1.65 3.69932,-3 4.55404,-3 0.85472,0 5.50184,-1.29021 10.32692,-2.86714 13.07962,-4.27467 17.38766,-5.14181 19.61714,-3.94862 1.39866,0.74853 2.12814,0.66945 2.72444,-0.29538 0.44788,-0.72469 2.97815,-1.44614 5.62282,-1.60323 2.64467,-0.15708 6.98176,-0.73853 9.63798,-1.29211 3.28771,-0.68518 6.93123,-0.67075 11.41303,0.0452 4.97215,0.79431 6.76332,0.76083 7.31807,-0.13677 0.73608,-1.19101 12.19087,-1.3631 20.89536,-0.3139 l 4.03055,0.48582 -0.45296,-6.79312 c -0.45153,-6.77164 0.65788,-11.02732 2.23919,-8.58949 0.43691,0.67357 0.77272,-0.46373 0.77272,-2.61694 0,-3.25296 0.94444,-4.89345 6.47728,-11.25109 7.12687,-8.18936 11.74787,-11.00074 21.78967,-13.2568 3.4718,-0.78 7.3565,-2.10229 8.6326,-2.93843 5.502,-3.6051 7.2461,3.22075 4.7754,18.6903 -0.5989,3.75008 -1.5134,7.35008 -2.0323,8 -0.5188,0.64992 -1.273,2.30668 -1.676,3.68168 -0.8738,2.98132 -6.363,9 -8.2083,9 -0.7789,0 -1.3038,1.19502 -1.3038,2.96862 0,2.04012 -0.4107,2.81101 -1.3131,2.46473 -0.7222,-0.27714 -2.1444,0.41474 -3.1605,1.53751 -2.0607,2.27704 -1.3788,3.98142 0.8522,2.1299 1.0849,-0.90036 1.5204,-0.90387 1.8168,-0.0146 0.2585,0.77554 2.9799,1.11946 8.0772,1.02078 4.2281,-0.0819 8.4839,0.28582 9.4574,0.81707 0.9735,0.53124 6.1618,1.66144 11.5296,2.51156 5.3678,0.85012 11.4428,2.29398 13.5,3.20858 2.0572,0.9146 4.335,1.56674 5.0616,1.44919 1.2633,-0.20432 11.4428,3.27306 19.4636,6.64886 5.2434,2.20688 8.7152,5.67658 8.7152,8.71008 0,2.1394 -0.4607,2.54775 -2.8743,2.54775 -1.5808,0 -4.8433,-0.70352 -7.25,-1.56337 -2.4066,-0.85985 -9.5489,-2.90555 -15.8717,-4.546 -6.3228,-1.64045 -11.9253,-3.41194 -12.45,-3.93663 -0.5247,-0.5247 -3.114,-0.954 -5.754,-0.954 -4.1792,0 -4.8,0.2663 -4.8,2.05902 0,1.13246 0.4508,1.78038 1.0019,1.43982 0.551,-0.34055 1.4295,0.50553 1.9521,1.88018 0.5226,1.37466 1.8718,2.99257 2.9981,3.59536 1.1264,0.60279 2.0479,1.71765 2.0479,2.47747 0,0.75982 0.4698,1.53807 1.0439,1.72946 1.347,0.44897 4.1649,14.01621 3.7637,18.12047 -0.2789,2.85302 -0.7214,3.22752 -4.7485,4.0188 -7.7741,1.52758 -26.0591,-4.66913 -26.0591,-8.83135 0,-0.84242 -0.6002,-1.19613 -1.466,-0.8639 -1.8057,0.69291 -9.5103,-10.98579 -9.5245,-14.43726 -0.016,-3.97774 -4.7244,-12.58846 -7.9128,-14.47186 -2.9576,-1.74714 -25.91491,-5.50486 -35.0967,-5.74474 -6.6292,-0.1732 -26.82035,0.80229 -27.7224,1.33934 -0.42768,0.25463 -5.0526,0.78172 -10.2776,1.17131 -5.225,0.3896 -11.75,1.39498 -14.5,2.23417 -14.7385,4.49763 -23.5,8.31553 -23.5,10.24031 0,0.39962 0.91311,1.81037 2.02914,3.13499 6.50807,7.7245 9.44314,11.86772 11.04244,15.58773 2.4582,5.71787 6.53509,19.00738 7.23089,23.57068 l 0.57179,3.75 h -5.7782 c -3.17801,0 -7.83227,-0.61819 -10.34281,-1.37375 C 892.98057,964.18989 876,953.48127 876,951.90779 876,951.40851 875.34662,951 874.54804,951 c -1.7027,0 -7.70214,-8.32931 -7.31372,-10.15399 0.71064,-3.33831 -13.15291,0.34345 -24.58222,6.52834 -6.7378,3.64611 -20.45953,15.95997 -23.79045,21.3495 -1.15703,1.87212 -3.84924,4.50577 -5.98267,5.85255 -2.13344,1.34678 -3.87898,3.01048 -3.87898,3.69712 0,0.68664 -1.35,2.36355 -3,3.72648 -1.65,1.36293 -3,2.99734 -3,3.63203 0,0.6347 -0.6447,1.40139 -1.43267,1.70376 -1.17689,0.45161 -4.59809,5.20343 -8.90437,12.36754 -1.09769,1.82617 6.70583,3.70487 9.39992,2.26297 1.60981,-0.8615 2.60541,-0.7584 4.46899,0.4626 1.31877,0.8641 3.28678,1.5711 4.37335,1.5711 3.30778,0 16.40494,5.1104 19.59478,7.6457 4.14186,3.292 4.39776,3.4837 9.69211,7.2619 2.58066,1.8415 4.9175,3.9356 5.19298,4.6535 0.27547,0.7179 -1.19859,3.9228 -3.2757,7.1221 -6.05858,9.3316 -18.35051,15.7845 -30.10939,15.8065 -8.96708,0.017 -17.28743,-1.1693 -18.43124,-2.6273 -0.60832,-0.7755 -2.41486,-1.2314 -4.19333,-1.0584 -1.71851,0.1672 -3.74351,-0.2876 -4.5,-1.0107 C 779.88068,1037.0191 774.3706,1033 772.82,1033 c -1.001,0 -1.82,0.1189 -1.82,0.2641 0,0.1453 -0.89003,2.6991 -1.97784,5.6753 -1.08782,2.9761 -2.23944,7.165 -2.55916,9.3087 -0.31972,2.1436 -0.97617,4.8772 -1.45877,6.0747 -0.78376,1.9447 -0.88423,1.9725 -0.94084,0.2605 -0.10991,-3.3232 -1.07981,-1.0683 -1.51282,3.517 -0.22851,2.4198 -0.6574,5.5247 -0.95309,6.8997 -0.29569,1.375 -0.98781,6.1 -1.53805,10.5 -0.55024,4.4 -1.4403,10.0849 -1.97791,12.6332 -0.53761,2.5483 -0.74036,9.0733 -0.45056,14.5 1.49914,28.0721 1.60162,39.3816 0.3703,40.8653 -0.91675,1.1046 -0.95414,1.8533 -0.14147,2.8326 1.24865,1.5045 1.64116,142.6258 0.48557,174.5791 -0.57834,15.9918 -0.90748,18.6519 -2.50558,20.25 -2.54131,2.5413 -5.46936,2.3011 -8.46485,-0.6944 z M 735.89345,1083.057 c 2.1301,-1.14 3.47546,-5.3193 2.60013,-8.0772 -1.66002,-5.2303 -32.85968,-9.4274 -40.54324,-5.4541 -3.39027,1.7532 -3.89919,4.8961 -1.04054,6.426 1.35252,0.7239 1.73962,1.6825 1.32659,3.2852 -0.51165,1.9854 -0.38516,2.1007 1.03073,0.94 1.3586,-1.1138 2.37492,-0.983 6.42342,0.8261 2.6452,1.1821 6.60946,2.5449 8.80946,3.0284 4.8255,1.0607 18.77839,0.4252 21.39345,-0.9744 z M 796.55,1033.0825 c 0.57347,-0.5538 4.3957,-0.5617 9.64359,-0.02 8.08644,0.8349 9.05289,0.7311 13.83819,-1.486 6.20096,-2.8729 8.67183,-5.7479 6.49365,-7.5556 -0.7908,-0.6563 -1.86773,-0.9276 -2.39317,-0.6028 -0.52544,0.3247 -2.61338,-1.1593 -4.63986,-3.2979 -2.87024,-3.0289 -4.71301,-4.0416 -8.33845,-4.5821 -2.55967,-0.3817 -5.55395,-0.8711 -6.65395,-1.0875 -1.1,-0.2165 -3.8,-0.5174 -6,-0.6688 -2.2,-0.1513 -4.2883,-0.6736 -4.64068,-1.1607 -0.35237,-0.487 -0.9379,0.051 -1.30119,1.1955 -0.38378,1.2092 -1.22966,1.8627 -2.01898,1.5598 -0.78073,-0.2995 -1.62964,0.3331 -1.99609,1.4877 -0.35069,1.105 -1.62884,2.15 -2.84034,2.3223 -1.78916,0.2546 -2.20272,0.968 -2.20272,3.7997 0,2.6932 0.45498,3.5726 2,3.8656 1.1,0.2087 3.48416,1.9023 5.29814,3.7637 3.50992,3.6017 4.24873,3.9186 5.75186,2.4669 z m -25.57224,-20.3639 c 0.0122,-0.9797 0.69724,-2.0404 1.52224,-2.357 2.09835,-0.8052 1.88409,-3.4992 -1.04102,-13.08911 -1.39757,-4.58189 -2.25883,-8.78733 -1.91391,-9.34541 0.8182,-1.32388 -1.48066,-4.08492 -2.74864,-3.30126 -0.53733,0.33208 -2.62384,-0.9457 -4.6367,-2.83951 -2.01285,-1.89381 -5.34723,-3.92836 -7.40973,-4.5212 L 751,976.1872 v 3.79209 c 0,2.08565 0.67223,5.08103 1.49384,6.6564 0.82161,1.57537 1.49661,3.77032 1.5,4.87766 0.009,3.06668 6.46356,11.98815 10.45926,14.45765 4.24463,2.6233 5.63144,6.5155 3.00566,8.4355 -1.20603,0.8819 -1.54907,1.9158 -1.05919,3.1924 0.67698,1.7642 0.85023,1.7244 2.64024,-0.6054 1.05364,-1.3714 1.92572,-3.2951 1.93795,-4.2749 z m 0.10119,-6.3019 c 0.048,-1.165 0.28494,-1.4019 0.60416,-0.6042 0.28887,0.7219 0.25335,1.5844 -0.0789,1.9167 -0.33229,0.3323 -0.56864,-0.2584 -0.52522,-1.3125 z m -96.10838,8.5143 c 15.9527,-5.5208 24.58361,-12.934 22.19447,-19.06332 -2.17527,-5.58061 -21.8213,-8.20374 -28.93921,-3.86394 -1.80079,1.09794 -3.88951,1.99626 -4.64159,1.99626 -0.75208,0 -1.6298,1.0454 -1.95049,2.3231 -0.32068,1.27771 -1.67309,3.9294 -3.00535,5.8926 -1.33226,1.9631 -2.72942,4.9677 -3.1048,6.6768 -0.37538,1.7091 -1.09676,3.1075 -1.60306,3.1075 -0.50629,0 -0.92054,1.125 -0.92054,2.5 0,2.4582 0.1336,2.5 7.99602,2.5 5.49184,0 9.86836,-0.648 13.97455,-2.069 z M 713.38396,983 c 0.79662,0 2.04831,-1.35528 2.78153,-3.01174 0.73322,-1.65646 2.14656,-3.26991 3.14075,-3.58546 C 722.53288,975.37871 726,964.97173 726,956.31067 v -6.04733 l -4.25,-0.58146 c -5.36849,-0.73449 -6.76079,0.60495 -9.68582,9.31812 -2.28577,6.8089 -3.90968,23.42464 -2.60557,26.65993 0.68317,1.69483 0.81019,1.66248 1.60933,-0.40993 0.47718,-1.2375 1.51939,-2.25 2.31602,-2.25 z M 901,953.53393 c 0,-2.20221 -1.61255,-6.80675 -4.12208,-11.77036 C 896.39506,940.80853 896,939.07289 896,937.90658 c 0,-1.38817 -0.47478,-1.93837 -1.37466,-1.59305 -0.77311,0.29667 -3.07053,-1.22277 -5.25,-3.47217 -5.21982,-5.3873 -6.71341,-6.10008 -9.81819,-4.68544 -3.32174,1.51348 -3.37733,5.54072 -0.17154,12.42539 C 884.02702,950.54907 901,960.72028 901,953.53393 Z m -318.16781,-6.44922 c 8.64204,-4.36249 14.84119,-11.21915 16.53499,-18.28875 0.48823,-2.03779 0.11152,-3.20371 -1.5289,-4.73199 -1.41929,-1.32228 -2.56706,-1.70403 -3.29841,-1.09706 -0.61691,0.51199 -3.2052,1.39783 -5.75176,1.96852 -8.08099,1.81099 -17.69798,12.41813 -19.32491,21.31457 l -0.68578,3.75 h 4.13981 c 2.58573,0 6.30779,-1.0944 9.91496,-2.91529 z M 880,944.5 c 0,-0.825 -0.43588,-1.5 -0.96862,-1.5 -0.53273,0 -0.70959,0.675 -0.39301,1.5 0.31659,0.825 0.75246,1.5 0.96862,1.5 0.21615,0 0.39301,-0.675 0.39301,-1.5 z m -403.52415,-4.23805 c 4.58321,-4.05763 8.4352,-8.39018 8.48819,-9.54713 0.0198,-0.43185 0.79844,-1.94888 1.73037,-3.37118 1.56991,-2.39599 1.75473,-2.44851 2.51537,-0.71482 0.64089,1.46076 0.72081,1.32284 0.36439,-0.62882 -0.25111,-1.375 0.19197,-3.37351 0.98463,-4.44113 1.5263,-2.05575 2.04353,-11.04917 0.58357,-10.14686 -0.47169,0.29152 -2.26563,0.12623 -3.98651,-0.36731 -1.72089,-0.49355 -3.36041,-0.52275 -3.64337,-0.0649 -0.28297,0.45785 -1.35451,0.61278 -2.38122,0.34429 -1.3395,-0.35029 -2.49201,0.52353 -4.08056,3.09388 -1.21761,1.97012 -2.96888,3.58204 -3.89172,3.58204 -0.92284,0 -2.23996,0.9 -2.92692,2 -0.68696,1.1 -1.81787,2 -2.51314,2 -2.40855,0 -4.92895,6.36355 -4.15481,10.4901 0.55427,2.95452 0.42887,3.6236 -0.56412,3.0099 -0.99518,-0.61506 -1.11626,0.0699 -0.54892,3.10544 0.40034,2.14201 1.22126,4.49145 1.82428,5.22098 1.77067,2.14219 7.71694,0.40494 12.20049,-3.56447 z m 566.65315,-1.87866 c 1.7089,-1.54661 1.6794,-1.81762 -0.6806,-6.25 -4.6647,-8.76102 -5.9591,-10.65522 -10.1211,-14.81161 -3.2352,-3.23085 -4.3047,-3.82308 -4.7602,-2.63603 -0.5224,1.36146 -0.8632,1.35034 -3.0773,-0.10037 -1.3694,-0.89726 -2.4898,-1.34091 -2.4898,-0.98589 0,0.35503 -0.647,0.10856 -1.4377,-0.54771 -1.1715,-0.97228 -1.727,-0.63383 -3,1.8279 -1.9445,3.76021 -2.0464,8.12042 -0.1898,8.12042 0.7549,0 2.3152,2.1375 3.4674,4.75 1.1522,2.6125 2.1461,4.075 2.2087,3.25 0.063,-0.825 0.6876,-0.20074 1.3888,1.38724 0.8523,1.93013 1.5233,2.48532 2.0243,1.67479 0.5451,-0.88197 1.3876,-0.61275 3.0913,0.98776 1.2881,1.21012 3.4822,2.20021 4.8758,2.20021 1.3936,0 3.0473,0.61875 3.6749,1.375 1.4945,1.80075 2.8399,1.73604 5.0253,-0.24171 z M 872.79049,917 c 1.14059,-4.01892 0.51624,-22.55836 -0.84538,-25.10257 -0.90865,-1.69781 -0.93187,-2.40184 -0.0885,-2.68296 1.44467,-0.48156 1.50929,-3.21447 0.076,-3.21447 -0.61231,0 -0.79675,-0.85269 -0.43261,-2 0.37243,-1.17343 0.1797,-2 -0.46634,-2 -0.60561,0 -2.03038,-1.575 -3.16616,-3.5 -1.13578,-1.925 -2.67324,-3.5 -3.41659,-3.5 -0.74334,0 -1.73878,-0.69198 -2.21209,-1.53773 -0.7468,-1.33446 -1.10433,-1.26836 -2.70467,0.5 -1.01427,1.12075 -1.53901,2.03773 -1.16608,2.03773 0.37292,0 0.0313,1.0125 -0.75908,2.25 -0.82199,1.28694 -1.73461,6.36714 -2.13214,11.86885 -0.85085,11.77544 0.78245,18.45876 6.11941,25.04009 3.06472,3.77929 4.17088,4.4705 7.05944,4.41128 2.76856,-0.0568 3.5613,-0.54953 4.13479,-2.57022 z m -1.71154,-0.58333 c 0.048,-1.16495 0.28494,-1.4019 0.60416,-0.60417 0.28887,0.72187 0.25335,1.58438 -0.0789,1.91667 -0.33229,0.33229 -0.56864,-0.25834 -0.52522,-1.3125 z M 603.8853,907.40235 c 2.35734,-0.37695 4.53905,-1.34462 4.84825,-2.15038 0.66926,-1.74405 -2.33954,-19.75513 -4.42882,-26.51149 -1.84557,-5.96827 -3.91885,-7.21749 -8.6782,-5.2289 -4.63694,1.93744 -5.54285,3.90405 -4.60113,9.98842 2.76768,17.88168 5.44647,27.1832 7.3691,25.58756 0.6626,-0.54991 3.13346,-1.30826 5.4908,-1.68521 z m -123.51546,-5.99078 c 0.84339,-0.32363 2.0494,-2.15185 2.68004,-4.0627 0.92857,-2.8136 0.87198,-3.79513 -0.29759,-5.16157 -1.81379,-2.11912 -6.29362,-11.43095 -5.98345,-12.4373 C 476.89598,879.3375 476.55,879 476,879 c -0.55,0 -1.00777,-0.5625 -1.01728,-1.25 -0.009,-0.6875 -1.2193,-2.375 -2.68844,-3.75 -1.46914,-1.375 -2.33481,-1.9375 -1.9237,-1.25 0.4111,0.6875 0.28673,1.25 -0.27638,1.25 -0.56311,0 -1.56506,-1.0113 -2.22657,-2.24734 -0.70743,-1.32184 -1.36901,-1.74851 -1.6065,-1.03606 C 465.73815,872.28556 462,870.12999 462,868.25945 c 0,-0.6927 -0.5625,-1.32799 -1.25,-1.41176 -2.28792,-0.27879 -3.23031,-0.53763 -5.75,-1.57932 -1.375,-0.56845 -2.84239,-0.8318 -3.26088,-0.58522 -1.58655,0.93484 -0.0577,10.46179 3.77308,23.51207 1.33848,4.55976 4.73937,9.21988 5.88932,8.06993 0.3125,-0.3125 1.77655,0.64019 3.25345,2.11709 1.90922,1.90922 2.90142,2.33554 3.43319,1.47512 0.56567,-0.91528 1.31613,-0.81445 3.07987,0.41379 2.3987,1.67042 6.49704,2.17834 9.20181,1.14042 z M 1003.6535,894.75 c 0.7169,-2.47134 1.4337,-3.18126 2.9916,-2.96308 2.5556,0.35792 4.6049,-2.00432 4.6049,-5.30824 0,-1.38333 0.3937,-2.75851 0.875,-3.05593 0.4813,-0.29743 0.875,-0.13923 0.875,0.35157 0,0.49079 0.675,0.89235 1.5,0.89235 0.825,0 1.5,-0.18215 1.5,-0.40477 0,-0.22261 -0.675,-1.07976 -1.5,-1.90476 -2.0687,-2.0687 -1.8768,-3.35714 0.5,-3.35714 1.1,0 2,-0.47656 2,-1.05902 0,-0.58246 0.402,-0.81057 0.8933,-0.50691 0.8594,0.5311 1.8415,-2.15915 2.714,-7.43407 0.2274,-1.375 0.6676,-3.61278 0.9781,-4.97285 0.5488,-2.40386 0.5096,-2.42308 -1.4067,-0.68887 -1.5207,1.37623 -2.0919,1.4843 -2.4989,0.47285 -0.4171,-1.03671 -0.7528,-0.99718 -1.6037,0.18887 -0.9565,1.33333 -1.1872,1.33333 -2.0761,0 -0.8889,-1.33333 -1.1077,-1.33333 -1.9695,0 -0.7877,1.2188 -1.3367,1.27247 -2.9283,0.28627 -1.7667,-1.09461 -2.1748,-0.76776 -4.1588,3.33059 -1.2099,2.49937 -2.9189,4.82024 -3.7977,5.15749 -2.70794,1.03912 -7.14536,5.46979 -7.15186,7.14095 -0.003,0.87158 -0.68628,2.88884 -1.51753,4.4828 -0.97398,1.86763 -1.28705,4.09384 -0.88048,6.26104 0.71767,3.8255 2.40417,5.50899 2.40417,2.39988 0,-1.13246 0.45,-2.05902 1,-2.05902 0.55,0 1,0.83123 1,1.84719 0,1.71366 3.03829,3.92795 5.6053,4.08513 0.608,0.0372 1.5296,-1.39482 2.0482,-3.18232 z M 782.25,1112.2191 c -1.2375,-0.197 -2.25,-0.7348 -2.25,-1.195 0,-0.4603 -0.83135,-0.6195 -1.84744,-0.3537 -1.17568,0.3074 -3.14123,-0.7371 -5.40559,-2.8727 -2.71249,-2.5582 -3.72617,-4.4762 -4.2651,-8.0701 -0.78362,-5.2255 0.0832,-11.7276 1.56344,-11.7276 0.52508,0 0.96966,-0.7875 0.98796,-1.75 0.0404,-2.1258 2.78016,-5.5446 5.69239,-7.1032 3.59397,-1.9234 13.70307,-1.4125 18.17543,0.9187 5.24015,2.7313 5.85363,3.6252 6.13177,8.9345 0.36937,7.0511 0.12142,8.7924 -0.99953,7.0197 -0.69998,-1.107 -1.105,-0.4237 -1.60603,2.7095 -0.36849,2.3045 -1.16719,4.0956 -1.7749,3.9804 -0.6077,-0.1153 -1.27122,0.9154 -1.47448,2.2904 -0.49862,3.3731 -1.98817,5 -4.57786,5 -1.18528,0 -3.04268,0.5799 -4.12755,1.2887 -1.08488,0.7088 -2.98501,1.1275 -4.22251,0.9304 z m 71.93467,-124.16531 c -5.97004,-1.49085 -11.28967,-8.09794 -13.12934,-16.30687 -1.57302,-7.01917 0.62596,-10.93186 8.29868,-14.76596 C 855.28685,954.01629 864,952.83778 864,955 c 0,0.55 0.81581,1 1.81291,1 2.25138,0 6.70369,4.55734 8.12347,8.3151 2.07859,5.50143 1.31818,12.89194 -1.83861,17.86968 -1.59622,2.51698 -3.41093,4.89073 -4.03268,5.27499 -1.82652,1.12885 -10.28856,1.49099 -13.88042,0.59402 z M 634.35462,983.73957 C 630.60708,982.26269 623,973.68701 623,970.93918 623,969.87263 622.55,969 622,969 c -0.55,0 -1,-1.13357 -1,-2.51905 0,-2.12428 0.35801,-2.4292 2.28451,-1.94568 1.9789,0.49667 2.61433,-0.1362 4.75,-4.73095 1.77363,-3.81582 3.02673,-5.30432 4.46549,-5.30432 1.1,0 2.53552,-0.34739 3.19005,-0.77197 0.65486,-0.42479 1.75536,-0.16681 2.44706,0.57366 0.69135,0.7401 2.2223,1.1611 3.40211,0.93556 1.17981,-0.22553 2.88769,0.33251 3.79528,1.2401 0.90759,0.90759 2.08636,1.38058 2.61949,1.05109 1.46079,-0.90282 5.36427,7.50556 5.22567,11.25649 C 652.97392,974.35286 651.05651,980 649.37175,980 c -0.85314,0 -2.2983,0.91369 -3.21146,2.03041 -2.07145,2.53323 -7.66118,3.34248 -11.80567,1.70916 z M 429.68607,961.02586 c -4.24501,-1.33824 -5.26356,-2.55302 -7.13844,-8.51374 -2.10047,-6.67795 -1.05096,-10.92772 3.97738,-16.10553 2.55496,-2.63091 4.12727,-3.40659 6.90519,-3.40659 1.97831,0 4.37833,0.39707 5.33337,0.88237 0.95504,0.48531 3.08643,1.28332 4.73643,1.77337 3.5733,1.06127 6.38114,6.08651 6.45197,11.54721 0.0537,4.14006 -1.78738,9.01681 -3.0982,8.20668 C 446.3842,955.11941 446,955.75342 446,956.81854 c 0,1.06511 -0.5625,2.3983 -1.25,2.96264 -1.79039,1.46966 -11.742,2.29192 -15.06393,1.24468 z M 847,914 c 0,-0.55 0.45,-1 1,-1 0.55,0 1,0.45 1,1 0,0.55 -0.45,1 -1,1 -0.55,0 -1,-0.45 -1,-1 z M 547.04513,889.24845 c -2.75767,-1.39561 -3.83684,-2.85836 -5.34772,-7.24845 -2.31384,-6.72327 -1.34625,-10.54065 4.11889,-16.25 3.94993,-4.12644 8.06601,-4.92159 11.82983,-2.28531 1.15013,0.80559 2.31285,1.243 2.58382,0.97203 1.38152,-1.38152 5.86592,1.85089 7.322,5.27779 1.91278,4.50172 1.46073,13.07184 -0.77577,14.7072 -0.81683,0.59728 -1.7879,2.03985 -2.15793,3.20571 -1.13283,3.56924 -11.7824,4.55161 -17.57312,1.62103 z m 406.47682,-4.39791 C 949.97438,880.64305 948,875.9958 948,871.85312 948,868.1838 950.00887,862 951.20089,862 951.6404,862 952,861.37959 952,860.62132 c 0,-1.74739 4.04286,-3.43246 10.79681,-4.50012 4.11716,-0.65083 5.96577,-0.48142 8.43017,0.77258 8.59525,4.37366 9.43102,18.7158 1.63701,28.09189 -1.78291,2.14482 -3.05705,2.53571 -9.29163,2.85054 -7.14594,0.36086 -7.25644,0.32803 -10.05041,-2.98567 z M 728.5,866.02539 c -9.19711,-2.62179 -25.80694,-9.79755 -27.49374,-11.87782 -0.82844,-1.02169 -2.29376,-2.13373 -3.25626,-2.47121 -0.9625,-0.33747 -1.75,-1.52771 -1.75,-2.64498 0,-1.5951 -0.65106,-2.03138 -3.03138,-2.03138 -1.77208,0 -3.27051,-0.62314 -3.60699,-1.5 -0.31659,-0.825 -1.59736,-1.5 -2.84617,-1.5 -1.24882,0 -2.83077,-0.675 -3.51546,-1.5 -0.68469,-0.825 -1.87891,-1.5 -2.65383,-1.5 -0.77492,0 -1.65238,-0.63439 -1.94991,-1.40975 -0.29754,-0.77537 -1.59625,-1.67461 -2.88602,-1.99832 -1.28978,-0.32372 -3.29014,-2.11777 -4.44525,-3.98678 -1.15512,-1.86902 -3.21729,-4.13014 -4.5826,-5.02473 C 665.11708,827.68583 664,826.38928 664,825.69919 c 0,-0.69009 -0.9,-2.02531 -2,-2.96716 -1.1,-0.94185 -2,-2.39186 -2,-3.22224 C 660,818.6794 659.58032,818 659.06739,818 c -0.51294,0 -1.2525,-1.0125 -1.64346,-2.25 -0.39097,-1.2375 -1.50632,-2.81002 -2.47856,-3.49449 -0.97224,-0.68446 -2.06538,-3.00639 -2.4292,-5.15982 -0.51252,-3.03355 -1.2068,-4.05221 -3.08273,-4.52304 C 646.82294,801.91746 644,796.5901 644,792.31886 c 0,-1.34029 -0.43681,-2.16693 -0.97068,-1.83698 -0.53388,0.32995 -1.22449,-0.65599 -1.53469,-2.19098 -0.3102,-1.535 -0.96222,-4.1409 -1.44894,-5.7909 -0.48671,-1.65 -1.19836,-5.025 -1.58144,-7.5 -0.38308,-2.475 -1.09072,-5.25132 -1.57254,-6.16961 -2.70764,-5.16044 -4.1259,-46.93397 -2.09922,-61.83039 0.71087,-5.225 1.75364,-13.1 2.31726,-17.5 0.91471,-7.14092 3.13874,-15.44201 7.54286,-28.15342 0.79147,-2.28439 2.49619,-5.29411 3.78827,-6.68828 1.29207,-1.39418 2.0917,-2.79239 1.77695,-3.10714 -0.31476,-0.31475 0.43798,-1.51348 1.67274,-2.66384 1.24411,-1.15906 1.99316,-2.74792 1.6801,-3.56374 -0.31071,-0.8097 0.10878,-2.14589 0.9322,-2.96931 C 655.32629,641.53085 656,639.9499 656,638.84106 656,636.56506 662.74329,624 663.96475,624 c 0.43593,0 1.3737,-1.40287 2.08392,-3.11749 0.71021,-1.71462 3.24311,-5.40409 5.62865,-8.19882 2.38554,-2.79473 5.34654,-6.56379 6.58001,-8.37568 1.23347,-1.81189 2.80517,-3.29742 3.49267,-3.30118 0.6875,-0.004 1.25,-0.37968 1.25,-0.83539 0,-2.18003 6.37763,-10.08522 9.01912,-11.17936 C 693.65861,588.31298 695,587.39005 695,586.94111 695,585.86464 712.42707,568 713.47718,568 c 0.44679,0 1.7597,-0.92714 2.91758,-2.06031 2.63773,-2.58142 11.94068,-8.59399 14.60591,-9.4399 1.09963,-0.34901 1.99933,-1.2619 1.99933,-2.02863 0,-0.79786 1.81764,-1.87273 4.25,-2.51328 2.3375,-0.61556 5.28071,-2.2079 6.54047,-3.53854 2.67173,-2.82205 2.24244,-2.78997 13.20953,-0.98717 11.06584,1.81904 14,2.58952 14,3.67624 0,0.49037 0.74796,0.89159 1.66214,0.89159 1.77684,0 9.96703,4.50237 12.15858,6.6839 0.72639,0.72307 3.42639,2.51477 6,3.98155 2.5736,1.46678 5.57928,3.44132 6.67928,4.38786 1.1,0.94654 3.90592,2.67756 6.23538,3.8467 2.32945,1.16914 4.96871,3.24493 5.865,4.61285 0.8963,1.36793 2.36539,2.50136 3.26463,2.51874 2.42515,0.0469 6.2881,3.83878 9.50159,9.32685 1.56465,2.67215 4.96303,6.94715 7.55195,9.5 4.30364,4.24368 11.85704,14.93933 15.43053,21.84971 0.79439,1.53618 3.06582,4.51232 5.04763,6.61365 1.98181,2.10133 3.60329,4.70439 3.60329,5.78458 0,1.08019 0.70901,3.04606 1.57557,4.36861 0.86657,1.32254 2.61855,5.24421 3.89329,8.71481 1.27474,3.47061 3.75614,9.91019 5.51422,14.31019 1.75809,4.4 3.89243,10.25 4.74299,13 0.85055,2.75 1.85751,5.225 2.23768,5.5 0.38017,0.275 0.79761,3.2 0.92765,6.5 0.13003,3.3 0.84444,9.15 1.58756,13 2.9421,15.24247 2.83744,13.04306 2.11922,44.53751 -0.11962,5.24564 -0.51604,10.02057 -0.88092,10.61096 -0.36489,0.59039 -0.90124,3.46254 -1.19191,6.38255 -0.29066,2.92001 -1.38483,6.76052 -2.43149,8.53447 -1.38878,2.35381 -1.60453,3.52384 -0.79843,4.32994 0.80609,0.80609 0.78031,1.10457 -0.0954,1.10457 -0.66,0 -1.2,0.53292 -1.2,1.18428 0,0.65135 -0.85199,3.01385 -1.89332,5.25 -2.2392,4.80847 -3.61072,9.65808 -3.95437,13.98239 -0.0838,1.05416 -0.4455,1.62347 -0.80384,1.26513 -0.84141,-0.84137 -3.3485,3.97483 -3.3485,6.43251 0,1.03713 -0.45,1.88569 -1,1.88569 -0.55,0 -1,0.67109 -1,1.4913 0,0.82022 -1.35,2.78144 -3,4.35827 -1.65,1.57682 -3,3.15059 -3,3.49726 0,0.60211 -2.23472,3.53527 -4.61807,6.0614 -0.61494,0.65178 -1.43276,2.17656 -1.81739,3.38841 -0.38462,1.21185 -1.07021,2.20336 -1.52352,2.20336 -0.45331,0 -1.0872,1.04785 -1.40864,2.32856 -0.32143,1.28071 -1.72684,2.84908 -3.12313,3.48527 -1.39629,0.63619 -3.05431,2.28834 -3.68449,3.67144 -0.63019,1.3831 -1.86106,2.52904 -2.73528,2.54653 -2.46454,0.0493 -5.08948,2.47515 -5.08948,4.70344 0,1.43862 -0.85788,2.18634 -3,2.61476 -1.7913,0.35826 -3,1.22707 -3,2.15638 0,0.85602 -0.7875,1.83567 -1.75,2.177 -0.9625,0.34134 -2.48118,1.24599 -3.37484,2.01034 -0.89366,0.76435 -2.02735,1.25845 -2.51931,1.098 -0.49196,-0.16045 -1.92867,0.67003 -3.19268,1.84551 -2.91516,2.71097 -19.38643,10.86342 -24.66317,12.20703 -10.44779,2.6603 -17.06522,3.36773 -33.85796,3.61951 -14.71704,0.22066 -19.27477,-0.0509 -24.14204,-1.43838 z m 12.0069,-12.03655 c 0.38532,-0.62346 6.72735,-0.95402 16.54041,-0.86212 9.01799,0.0845 16.46528,-0.27215 17.18409,-0.82284 0.69773,-0.53454 4.4186,-1.97781 8.2686,-3.20726 8.53673,-2.72611 26.76609,-11.62817 29.10566,-14.21337 C 812.54303,833.84746 814.59023,833 816.15499,833 817.90614,833 819,832.46985 819,831.62113 c 0,-0.75838 3.08283,-4.28706 6.85073,-7.8415 3.7679,-3.55445 9.22729,-9.57145 12.13198,-13.37113 2.90469,-3.79967 6.00936,-7.19267 6.89927,-7.53998 0.88991,-0.34731 2.51802,-2.98915 3.61802,-5.87074 1.1,-2.8816 2.5625,-5.45808 3.25,-5.72551 0.6875,-0.26744 1.25,-1.33141 1.25,-2.36438 0,-1.03297 1.37126,-6.00552 3.04725,-11.05012 1.67599,-5.04459 4.39223,-14.1185 6.03608,-20.16423 2.82802,-10.40087 2.95985,-11.72395 2.45025,-24.59289 -0.95146,-24.0275 -2.5454,-36.80854 -5.00099,-40.10065 -2.95416,-3.96053 -3.85592,-6.90549 -2.58383,-8.43826 1.27301,-1.53388 0.34,-7.82538 -2.19785,-14.82062 -0.5505,-1.51739 -1.00091,-3.87989 -1.00091,-5.25 0,-2.61432 -1.257,-3.37781 -2.04337,-1.24112 -0.25303,0.6875 -0.76099,-0.1 -1.1288,-1.75 -1.79068,-8.0328 -3.05856,-11.59837 -6.65007,-18.7014 -2.14173,-4.23577 -3.48126,-7.95652 -2.97673,-8.26833 0.50453,-0.31182 -1.07806,-2.53409 -3.51685,-4.93839 C 834.99538,627.18759 833,624.8398 833,624.37457 833,622.38036 827.56032,613 826.40387,613 c -0.698,0 -1.55591,-0.90369 -1.90647,-2.00819 -0.35056,-1.1045 -3.75446,-5.18144 -7.56423,-9.05985 -3.80977,-3.87841 -7.34788,-7.83834 -7.86246,-8.79985 -0.51459,-0.9615 -2.88646,-2.75155 -5.27083,-3.97788 -2.38437,-1.22632 -5.85323,-4.01271 -7.70857,-6.19196 C 794.23596,580.78302 791.91174,579 790.92636,579 c -0.98537,0 -2.04371,-0.7875 -2.35187,-1.75 -0.30816,-0.9625 -3.15099,-3.06779 -6.31739,-4.67842 -3.16641,-1.61063 -6.48828,-3.54191 -7.38194,-4.29172 -0.89366,-0.74982 -2.01866,-1.29124 -2.5,-1.20316 -2.69123,0.49245 -5.60467,-0.30621 -7.29947,-2.00101 -4.09382,-4.09382 -8.85249,-5.25448 -10.98892,-2.68024 -0.92024,1.10882 -1.88479,1.17243 -4.69582,0.3097 -2.68782,-0.82492 -3.71945,-0.79166 -4.29427,0.13842 -0.41612,0.67329 -1.5081,0.93578 -2.42663,0.58331 C 741.5674,563.00375 741,563.29565 741,564.28602 c 0,1.42508 -2.64449,3.21259 -4.25,2.87274 -0.4125,-0.0873 -0.75,0.32874 -0.75,0.92457 0,0.59584 -0.55675,0.89775 -1.23721,0.67093 -0.68047,-0.22682 -2.36797,0.64434 -3.75,1.93591 -4.56571,4.26687 -11.49131,9.29026 -12.82181,9.30012 -0.71996,0.005 -1.02631,0.46713 -0.68079,1.0262 0.8428,1.36368 -4.55813,6.98351 -6.71149,6.98351 -2.21672,0 -6.30371,4.12323 -8.72395,8.8013 -1.814,3.50629 -5.90779,7.97779 -16.66144,18.1987 -3.0859,2.93302 -5.95118,7.11163 -8.22843,12 -1.92163,4.125 -5.89935,12.3742 -8.83938,18.33156 -2.94002,5.95736 -5.3455,11.59485 -5.3455,12.52776 0,0.93291 -0.9,2.4668 -2,3.40865 -1.1,0.94185 -2.05743,2.27936 -2.12762,2.97224 -0.41069,4.05395 -0.90208,6.02147 -3.31163,13.25979 -5.91886,17.7803 -8.98605,32.02114 -10.12286,47 -0.37568,4.95 -0.84803,9.89644 -1.04967,10.99208 C 642.8014,744.11423 658.94777,800 663.02568,800 c 0.53588,0 0.97432,0.68996 0.97432,1.53324 0,3.0117 5.08291,11.48799 9.75154,16.26172 C 678.92703,823.08694 693.61965,835 694.9709,835 c 0.46193,0 2.72864,1.57802 5.03713,3.50671 2.30849,1.92869 5.38857,3.77141 6.84462,4.09493 3.97577,0.88339 11.51884,3.61602 12.59735,4.56364 0.5225,0.4591 1.8725,0.8413 3,0.84934 1.1275,0.008 5.2,1.56934 9.05,3.46956 7.79114,3.84542 8.12149,3.93729 9.0069,2.50466 z M 852.09378,655.69378 C 851.30207,654.90207 851,655.16155 851,656.63333 c 0,2.64375 1.39845,4.04704 1.84378,1.85016 0.18908,-0.93276 -0.14842,-2.18813 -0.75,-2.78971 z M 1394,111.94098 c 0,-0.58246 0.45,-0.7809 1,-0.44098 0.55,0.33992 1,0.81648 1,1.05902 0,0.24254 -0.45,0.44098 -1,0.44098 -0.55,0 -1,-0.47656 -1,-1.05902 z"
       id="path1" />
    <rect
       style="fill:#ffffff;fill-opacity:0.144876"
       id="rect1"
       width="702.0957"
       height="1178.991"
       x="402.71152"
       y="524.58472" />
  </g>
</svg>
